<svg width="55.77" height="52.95" version="1.2" viewBox="268.73 419.51 55.77 52.95" xmlns="http://www.w3.org/2000/svg"><g clip-path="url(#a)" transform="translate(-5 29.64)"><g clip-path="url(#b)" clip-rule="evenodd"><path d="M315.82 389.87v23.23h13.68v-23.23z" fill="url(#c)"/></g></g><g clip-path="url(#d)" transform="translate(-5 29.64)"><g clip-path="url(#e)" clip-rule="evenodd"><path d="M287.19 390.31v23.25h-13.46V390.3z" fill="url(#f)"/></g></g><g clip-path="url(#g)" transform="translate(-5 29.64)"><g clip-path="url(#h)" clip-rule="evenodd"><path d="M282.01 402.48v40.34h44.66v-40.34z" fill="url(#i)"/></g></g><clipPath id="a"><path d="M316 391h14v22h-14z"/></clipPath><clipPath id="b"><path d="M316.27 408.45c.46-1.84 4.2-4.02 5.47-6.9 1.28-2.86.1-11.67 2.2-10.33 2.1 1.35 4.28-.02 4.92.87.64.89-.4 2-1.1 4.48-.7 2.47-1.64 7.66-3.1 10.33-1.46 2.67-4.1 5.17-5.65 5.69-1.55.51-3.2-2.3-2.74-4.14z"/></clipPath><linearGradient id="c" x1="88.06" x2="91.87" y1="115.05" y2="115.05" gradientTransform="scale(3.5866)" gradientUnits="userSpaceOnUse"><stop stop-color="#fbe192" offset=".48"/><stop stop-color="#e8c763" offset=".64"/><stop stop-color="#d4ad34" offset=".79"/><stop stop-color="#c19305" offset=".95"/></linearGradient><clipPath id="d"><path d="M273 391h14v23h-14z"/></clipPath><clipPath id="e"><path d="M286.73 408.91c-.46-1.84-4.23-4.05-5.47-6.9-1.25-2.83-1.24-8.61-2-10.15-.77-1.54-1.73.89-2.58.91-.85.03-2.48-.76-2.72-.05-.24.7.55 1.86 1.28 4.3.73 2.44 1.64 7.67 3.1 10.34 1.46 2.67 4.1 5.17 5.66 5.68 1.55.52 3.19-2.3 2.73-4.13z"/></clipPath><linearGradient id="f" x1="-79.99" x2="-76.24" y1="115.06" y2="115.06" gradientTransform="scale(-3.5903 3.5903)" gradientUnits="userSpaceOnUse"><stop stop-color="#f0d277" offset=".58"/><stop stop-color="#ddb849" offset=".74"/><stop stop-color="#ca9e1a" offset=".89"/></linearGradient><clipPath id="g"><path d="M282 402h45v41h-45z"/></clipPath><clipPath id="h"><path d="M292.34 405.69c-3.2 1.66-8.27 4.07-9.3 7.06-1.04 2.99.58 7.73 3.1 10.85 2.52 3.13 9.52 5.83 12.04 7.93 2.52 2.1 2.55 3.04 3.1 4.65.55 1.6-.82 4.14.18 5 1 .86 4.6 1.63 5.84.17 1.25-1.47-.76-6.35 1.64-8.96 2.4-2.61 9.85-4.1 12.77-6.72 2.92-2.61 4.53-6.11 4.74-8.96.21-2.84-1.12-5.94-3.47-8.1-2.33-2.15-7.1-3.84-10.57-4.81s-6.75-1.32-10.22-1.04a25.5 25.5 0 00-9.85 2.93z"/></clipPath><radialGradient id="i" cx="304.6" cy="422.42" r="29.47" gradientUnits="userSpaceOnUse"><stop stop-color="#e7a370" offset=".13"/><stop stop-color="#bd7a38" offset=".28"/><stop stop-color="#945200" offset=".44"/><stop stop-color="#933c00" offset=".63"/><stop stop-color="#931f00" offset=".87"/></radialGradient></svg>