<svg width="170.7" height="254.12" version="1.2" viewBox="369.31 97.22 170.7 254.12" xmlns="http://www.w3.org/2000/svg"><g clip-path="url(#a)"><g clip-path="url(#b)" clip-rule="evenodd"><path d="M369.31 97.22v254.12h97.9V97.22z" fill="url(#c)"/></g></g><g clip-path="url(#d)"><g clip-path="url(#e)" clip-rule="evenodd"><path d="M465.95 112.61v237.98h74.06V112.61z" fill="url(#f)"/></g></g><clipPath id="a"><path d="M369 97h99v255h-99z"/></clipPath><clipPath id="b"><path d="M418.17 97.28c-1.8.04-3.65.4-5.05.93a7 7 0 00-3.34 2.3 15.89 15.89 0 00-3.1 5.92c-.44 2.03.7 5.03.42 6.27-.3 1.24-1.26 1.08-1.34 2.12-.09 1.04.33 2.95.83 4.1s1.54 1.74 2.17 2.78c.63 1.03 1.1 2.32 1.6 3.46.5 1.13 1.77 1.66 1.9 3.06.12 1.4-.31 4.2-1.16 5.33-.85 1.14-3.52 1.26-7.52 3.68-4 2.41-13.48 4.41-16.44 10.82-2.95 6.4-.96 21.76-1.28 27.59-.32 5.84.05 3.93-.64 7.4-.7 3.48-2.62 7.3-3.53 13.42-.91 6.11-.81 18.32-1.94 23.27-1.13 4.94-3.15 4.07-4.82 6.4-1.67 2.31-4.8 6.28-5.2 7.51-.42 1.22 1.73.13 2.71-.16.98-.3 2.92-3.3 3.14-1.62.23 1.67-1.82 9.75-1.8 11.66.02 1.9 1.21 1.4 1.9-.24.7-1.64 2.18-8.66 2.37-7.95.2.71-1.43 7.96-1.48 9.33s.97 1.76 1.6.28c.63-1.48 1.78-7.83 2.18-7.64.41.2-.34 6.2-.16 7.4.18 1.2.7.97 1.23-.21.52-1.18 1.6-6.77 1.9-6.86.28-.09-.37 5.18-.17 6.34.19 1.16 1.04 1.3 1.6-.63a81.1 81.1 0 001.74-10.97c.23-3.09.2-4.1.2-5.88s-.75-3.17-.25-4.8c.5-1.65 2.2-6.52 3.4-10.24 1.22-3.7 2.67-5.72 3.87-12.04 1.2-6.32 2.05-24.45 3.16-26 1.1-1.54 3.3 11.39 3.46 16.72.16 5.33-1.8 9.19-2.54 15.3-.74 6.1-3.04 13.93-2.98 23.54.07 9.6.9 25.75 3.36 34.1 2.45 8.35 2.28 9.18 2.24 14.35-.03 5.17-2.08 15.37-1.34 23.17.73 7.8 4.8 18.52 5.76 23.65.98 5.13.1 5.14.06 7.14-.05 2 .74 2.51-.33 4.88s-3.37 5.08-4.7 7c-1.34 1.9-1.22 3.22-.83 3.64.4.42 1 1.26 1.8 1.8.8.52 1.89 1.26 2.49 1.24.6-.03.94-.54 1.38-.83.44-.3 1.06-1.17 1.27-.94.2.23-.33 1.94-.03 2.32.3.38 1.35.31 1.87-.07.53-.38.69-.7 1.27-1.52.6-.82 1.8-2.04 2.25-3.38.44-1.35 1.77-4.94 2.07-6.5.3-1.55-.27-1.59-.25-2.83.03-1.25.49-2.94.39-4.63-.1-1.69-1.16-2.97-.97-5.52.19-2.56.61-6.1 1.14-9.95.52-3.86 1.95-8.85 2-13.21.07-4.36-1.46-9.44-1.64-12.97-.17-3.53.24-4.93.57-8.22.34-3.3.34-8.57.6-14.3s.33-15.25.92-20.1c.6-4.86 1.92-9.24 2.63-9.05.71.18 1.15 5.12 1.66 10.15.5 5.03.63 14.86.96 20.04.34 5.16.74 7.72 1.03 10.99.29 3.26.86 4.68.7 8.6-.16 3.9-1.86 9.17-1.67 14.84.2 5.67 2.47 14.44 2.83 19.2.36 4.76-.63 7.18-.68 9.37-.04 2.17.57 2.36.42 3.73-.15 1.35-.94 3.12-.78 4.3.16 1.17 1.27 1.84 1.75 2.74.47.9.16 1.7.55 2.76.4 1.06 1.35 2.56 1.8 3.6.44 1.03.66 2.2 1.4 2.49.76.29 2.66-.21 3.08-.76.42-.54-1.05-2.12-.52-2.5.54-.38 1.58 1.73 2.3 1.8.73.09 1.96-.42 2.44-.76.47-.33.2-.92.42-1.24.2-.33.7.66.96.27.26-.38.88-1.54.6-2.6-.27-1.06-1.49-2.55-2.26-3.75-.77-1.2-1.7-2.46-2.35-3.46-.64-.98-1.3-1.44-1.52-2.48-.2-1.04.32-1.97.26-3.5-.07-1.51-.9-3.02-.67-5.62.23-2.6 1.44-4.33 2.2-8.01.79-3.69 2.91-9.18 3.55-14.23.65-5.06.55-12.25.32-16.1s-2.45-9.18-1.68-16.23c.76-7.05 5.07-18.86 6.27-26.05a69.66 69.66 0 00.94-17.06c-.28-5.52-1.58-9.6-2.65-16.11-1.07-6.52-3.59-16.57-3.77-22.97-.19-6.4 1.93-14.24 2.66-15.44.73-1.2 1.04 3.56 1.7 8.24.65 4.68 1.44 13.33 3.04 19.85 1.6 6.53 5.54 15.23 6.57 19.32s.24 3.61-.36 5.18c-.05 1.7-.3 2.36.1 5.03.41 2.68 1.74 9.22 2.35 11.02s1.15.57 1.28-.23c.13-.8-.52-3.62-.52-4.6 0-.97.14-2.1.51-1.25s1.24 5.15 1.73 6.33c.5 1.18 1.13 1.81 1.25.76.12-1.06-.84-7.28-.51-7.1.33.2 1.81 6.97 2.47 8.23.65 1.25 1.43.86 1.46-.68.03-1.53-1.47-8.9-1.3-9.22.17-.31 1.76 5.9 2.3 7.32.54 1.43.59 1.16.94 1.24.35.08 1.05-.13 1.17-.76.12-.62-.2-1.57-.46-3-.27-1.43-.9-4.27-1.16-5.59-.24-1.31-.95-2.85-.32-2.85s3.41 2.73 4.1 2.85c.7.12 1.52-.06 1.46-.6-.05-.52-.78-1.14-1.79-2.57-1-1.44-3.2-4.6-4.27-6.03-1.6-1.16-2.13-1.34-2.78-2.45-.65-1.1-.74-.6-1.1-4.18s-.1-12.04-1.05-17.22c-.94-5.17-1.72-10.06-2.8-13.64-1.07-3.59-1.53-4.13-2-7.68-.46-3.55-.59-9.57-.78-13.64-.2-4.07.5-7.86.55-10.64.04-2.79-.53-4.35-.97-5.94-.44-1.6-2.94-4.95-5.7-6.93-2.75-1.99-7.95-3.43-10.82-5-2.88-1.55-5.42-2.66-6.83-3.69-1.4-1.02-1.58-2.1-1.75-3.41-.18-1.3.42-2.91.72-4.42.3-1.5.64-3.81 1.08-4.61.45-.8 1.8-.65 2.54-1.7a14.46 14.46 0 001.85-4.63c.26-1.44-.78-.95-1.22-2.52-.44-1.57.44-5.57.1-7.44-.34-1.87-1.13-2.54-2.16-3.79-1.04-1.24-2.43-2.95-4.06-3.67-1.63-.72-3.93-.71-5.73-.67z"/></clipPath><radialGradient id="c" cx="369.67" cy="97.26" r="271.95" gradientUnits="userSpaceOnUse"><stop stop-color="#26427b" offset=".16"/><stop stop-color="#4f6899" offset=".32"/><stop stop-color="#788db7" offset=".48"/><stop stop-color="#99abd0" offset=".63"/><stop stop-color="#6c86b7" offset=".79"/><stop stop-color="#3e609e" offset=".95"/></radialGradient><clipPath id="d"><path d="M466 112h74v239h-74z"/></clipPath><clipPath id="e"><path d="M504.27 112.94c-4.08-.33-10 2.9-12.64 6.03-2.65 3.12-2.77 9.02-3.23 12.72-.45 3.7.89 6.89.48 9.47-.42 2.6-2.93 4.3-2.95 6.07 0 1.77 4.06 3.28 2.89 4.54-1.18 1.26-1.34.12-3.1 1.52-1.77 1.4-5.91 4.1-7.49 6.92-1.57 2.83-1.7 6.11-1.97 10.04-.28 3.92.26 9.3.31 13.52.05 4.23.55 7.23 0 11.83-.56 4.6-2.48 10.18-3.34 15.78-.87 5.6-1 14.08-1.87 17.83-.86 3.76-2.56 3.66-3.32 4.7s-.56 1.14-.89 1.9c-.33.75-1.2 2.24-1.09 2.62.1.38 1.13-.1 1.73-.35.59-.24 1.57-2.15 1.84-1.14s-.34 5.92-.2 7.21c.12 1.29.71 1.49 1.01.52s.6-5.54.76-6.33c.16-.79.1.47.16 1.6.06 1.11-.01 4.32.16 5.13.55.97.55.57.8-.17.24-.74.44-3.32.65-4.28.22-.97.53-2.18.64-1.52.1.65-.3 5.21-.26 5.82.04.61.76.49 1.01-.38.26-.86.4-4.32.51-4.8.1-.5.38.01.5.63s.04 2.52.25 3.05c.21.52.79 1.53 1.02.11.24-1.43 0-6.25-.1-8.53-.12-2.3-.8-2.94-.57-5.2.23-2.24.52-3.64 1.94-8.3 1.42-4.65 5.26-13.27 6.45-20.5 1.2-7.24-.02-20.65.73-22.91.75-2.27 2.92 5.67 3.79 9.3.87 3.63 2.13 8.62 1.42 12.47-.71 3.85-3.96 6.7-5.68 10.64-1.73 3.93-3.85 7.88-4.67 12.94a59.43 59.43 0 00-.27 17.43c.86 6.72 4.27 18.39 5.41 22.9 1.14 4.51 1.16 1.55 1.43 4.19.26 2.64.3 7 .18 11.65-.13 4.67-1.12 10.85-.95 16.32.18 5.47 1.6 11.62 2.75 16.77 1.14 5.16 3.31 9.83 4.1 14.16.79 4.33.7 9.26.62 11.85s-.61 2.57-1.1 3.64a8.44 8.44 0 01-1.8 2.81c-.95.95-3.41 2.2-3.8 2.87-.41.68.86.86 1.39 1.18.52.32.78.6 1.77.76 1 .17 2.8.3 3.67.38.86.09 1.33-.23 1.9-.25.57-.02 1.06.14 1.54.14.49 0 .89.34 1.37-.14s.95-2.11 1.52-2.79c.57-.67 1.86-.83 1.77-2.4-.09-1.57-1.68-2.5-2.04-6.4-.36-3.9-.54-11-.12-16.98.42-5.99 2.57-12.83 2.65-18.9.08-6.08-2.26-8.1-2.17-17.56.09-9.45 2.3-31.17 2.71-39.15.4-7.98-.5-8.09-.27-8.72.24-.63 1.37-.57 1.56.76.2 1.33-.48 4.46-.42 7.21s.56 6.2 1.15 10.56c.59 4.35 2.2 9.23 2.37 15.62.15 6.39-1.03 16.96-1.43 22.72-.39 5.76-1.33 7.02-.94 11.83.4 4.82 3 11.6 3.31 17.04.32 5.45-.86 12.46-1.42 15.64-.57 3.18-2.14 4.59-2.2 6.08-.07 1.5 1.45 2.13 1.82 2.9.36.79.53 1.34.88 1.78.35.43.38.67 1.2.84.83.17 2 .3 3.74.17 1.74-.13 5.57-.4 6.73-.96 1.16-.54 1.37-1.5.23-2.33a24.34 24.34 0 01-3.54-3.04 9.5 9.5 0 01-1.7-3.02c-.36-1.08-.53-.97-.47-3.45.06-2.48-.18-6.75.82-11.44 1-4.7 4.06-10.74 5.17-16.7a108 108 0 001.5-19.05c-.16-4.4-.86-6.35-.86-10.36 0-4.02-.34-7.36.82-13.73 1.15-6.38 5.06-17.77 6.12-24.55 1.06-6.78.89-11.33.24-16.16s-2.3-8.27-4.12-12.83-6.4-8.78-6.85-14.55c-.44-5.77 3.34-18.73 4.2-20.09.86-1.36.83 9.07.95 11.92.11 2.85.17 3.81.25 5.3.08 1.48-.29 2.21.85 6.52 1.15 4.31 4.64 14.57 6 19.34 1.35 4.77 1.96 7.02 2.15 9.27.18 2.26-.95 3.05-1.03 4.23-.08 1.19.19 2.66.3 4.01.1 1.35.21 3.2.35 4.09.13.9.31 1.16.45 1.28s.25.2.39-.56c.13-.75.23-4.29.42-3.93.19.35.5 4.5.7 5.06.22.56.83.66.99-.28.16-.94-.26-5.75 0-5.35.26.4.75 5.3 1.13 6.33.36 1.03.94.46 1.09-.15.14-.62-.23-2.26-.25-3.28-.01-1.03-.07-3.03.14-2.9.21.13.43 4.1.75 4.92.32.82 1.08 1.1 1.16 0 .08-1.11-.75-5.4-.7-6.65.06-1.24.63-.88 1.04-.8.41.08.73 1.24 1.27 1.69.53.44 1.29.34 1.4.02.1-.32-.4-1.03-.78-1.95-.37-.92-.5-1.05-1.28-2.45-.78-1.4-1.97-.61-2.87-4.89-.9-4.27-1.74-15.13-2.56-20.75-.82-5.63-2-7.28-2.37-13-.37-5.72.5-15.41.15-21.3-.35-5.89-.55-7.27-1.37-10.35-.83-3.09-1.98-6.87-3.6-8.17-1.62-1.29-6-1.56-7.01-3.26-1.01-1.7-1-4.29.96-6.9 1.95-2.6-1.4-4.69-1.9-8.72-.52-4.03.98-11.57-1.19-15.48s-7.75-7.68-11.83-8z"/></clipPath><radialGradient id="f" cx="466.05" cy="112.91" r="248.71" gradientUnits="userSpaceOnUse"><stop stop-color="#463760" offset=".11"/><stop stop-color="#be5f61" offset=".27"/><stop stop-color="#f58165" offset=".61"/></radialGradient></svg>