<svg width="42.52" height="52.01" version="1.2" viewBox="605.07 36.44 42.52 52.01" xmlns="http://www.w3.org/2000/svg"><g clip-path="url(#a)" transform="translate(16.43 -29.44)"><g clip-path="url(#b)" clip-rule="evenodd"><path d="M588.64 65.88v52h42.52v-52z" fill="url(#c)"/></g></g><g clip-path="url(#d)" transform="translate(16.43 -29.44)"><g clip-path="url(#e)" clip-rule="evenodd"><path d="M598.59 95.68v12h12.53v-12z" fill="url(#f)"/></g></g><g clip-path="url(#g)" transform="translate(16.43 -29.44)"><g clip-path="url(#h)" clip-rule="evenodd"><path d="M602.77 99.97v3.39h4.27v-3.4z" fill="url(#i)"/></g></g><clipPath id="a"><path d="M589 65h42v53h-42z"/></clipPath><clipPath id="b"><path d="M602.42 65.88c-.6 3.92-1.2 7.85-3.34 12.34-2.15 4.5-8.63 9.49-9.53 14.6s.99 12.1 4.12 16.13c3.13 4.03 8.41 7.17 14.67 8.06 6.27.88 14.55-4 18.28-7.3 3.73-3.32 3.69-8.9 4.12-12.6.43-3.7-1.54-9.57-1.54-9.57"/></clipPath><radialGradient id="c" cx="630.8" cy="65.88" r="65.92" gradientUnits="userSpaceOnUse"><stop stop-color="#fdfbf7" offset=".38"/><stop stop-color="#f7e2ca" offset=".54"/><stop stop-color="#f0ca9c" offset=".7"/><stop stop-color="#e9b16f" offset=".85"/></radialGradient><clipPath id="d"><path d="M598 95h13v13h-13z"/></clipPath><clipPath id="e"><path d="M609.11 97.6a4.34 4.34 0 00-4.12-1.75c-1.54.17-4.23 1.34-5.15 2.77-.91 1.43-1.25 4.28-.34 5.79a7.14 7.14 0 005.83 3.27c2.58-.04 4.53-2 5.15-3.68.63-1.68-.45-5.04-1.37-6.4z"/></clipPath><radialGradient id="f" cx="610.67" cy="95.82" r="16.67" gradientUnits="userSpaceOnUse"><stop stop-color="#edd2b2" offset=".25"/><stop stop-color="#d1aa7a" offset=".5"/><stop stop-color="#b27e3d" offset=".66"/><stop stop-color="#945200" offset=".82"/><stop stop-color="#efe6db" offset=".97"/></radialGradient><clipPath id="g"><path d="M602 99h5v5h-5z"/></clipPath><clipPath id="h"><path d="M604.74 99.97c-.74.32-1.48.64-1.73 1.1-.24.44-.07 1.23.26 1.6a2.2 2.2 0 001.73.58 3.6 3.6 0 001.8-1.18c.24-.37-.1-.73-.42-1.1"/></clipPath><linearGradient id="i" x1="266.41" x2="264.73" y1="43.11" y2="44.8" gradientTransform="scale(2.2708)" gradientUnits="userSpaceOnUse"><stop stop-color="#e0a97b" offset=".14"/><stop stop-color="#cd7232" offset=".29"/><stop stop-color="#b3570a" offset=".52"/><stop stop-color="#9e6217" offset=".81"/><stop stop-color="#faf7f4" offset=".96"/></linearGradient></svg>