<?xml version="1.0" encoding="UTF-8"?>
<svg width="404px" height="506px" version="1.2" viewBox="262 36 404 506" xmlns="http://www.w3.org/2000/svg" xmlns:xlink="http://www.w3.org/1999/xlink">
 <defs>
  <clipPath id="center-cr">
   <path d="m369 97h99v255h-99z"/>
  </clipPath>
  <clipPath id="center-cg">
   <path d="m418.17 97.277c-1.7969 0.042968-3.6484 0.40234-5.0469 0.9375-1.3945 0.53906-2.1953 0.96875-3.3398 2.293-1.1406 1.3203-2.6523 3.8867-3.0977 5.918-0.44922 2.0312 0.70312 5.0352 0.41016 6.2734-0.29297 1.2383-1.2539 1.082-1.3398 2.1211-0.082031 1.0352 0.33594 2.9531 0.83594 4.0977s1.5391 1.7383 2.168 2.7773c0.62891 1.0391 1.1094 2.3281 1.6016 3.4609 0.49219 1.1328 1.7734 1.6602 1.8984 3.0625 0.12109 1.3984-0.3125 4.1953-1.1602 5.3359-0.84766 1.1406-3.5234 1.2578-7.5156 3.6758-3.9961 2.4141-13.488 4.4141-16.441 10.816-2.957 6.4023-0.96484 21.762-1.2852 27.594-0.32031 5.8359 0.054687 3.9336-0.64062 7.4023-0.69531 3.4727-2.6133 7.3047-3.5234 13.418-0.91406 6.1133-0.81641 18.324-1.9453 23.27-1.125 4.9414-3.1484 4.0742-4.8203 6.3906-1.6719 2.3203-4.7891 6.293-5.2031 7.5195-0.41406 1.2227 1.7383 0.12891 2.7148-0.16406 0.97656-0.29687 2.918-3.293 3.1406-1.6172 0.22656 1.6719-1.8164 9.7539-1.8008 11.656 0.019531 1.9062 1.2148 1.4062 1.9062-0.23438 0.6875-1.6406 2.1719-8.6641 2.3672-7.9531 0.19531 0.71484-1.4297 7.9609-1.4805 9.332s0.96875 1.7578 1.5977 0.27734c0.63281-1.4805 1.7773-7.8242 2.1836-7.6367 0.40625 0.19141-0.33984 6.2031-0.16406 7.3984 0.17578 1.1992 0.70703 0.96875 1.2266-0.21094 0.52344-1.1758 1.6094-6.7695 1.8984-6.8555 0.28516-0.089843-0.36328 5.1797-0.16797 6.3398 0.19141 1.1562 1.0391 1.2969 1.5977-0.63672 0.55859-1.9336 1.5156-7.8828 1.7461-10.965 0.23047-3.0859 0.20312-4.1016 0.19531-5.8828s-0.75-3.1641-0.25-4.8047c0.50391-1.6445 2.1992-6.5156 3.4102-10.23 1.2109-3.7109 2.6641-5.7227 3.8594-12.047 1.1953-6.3203 2.0547-24.441 3.1602-25.988 1.1016-1.5469 3.3125 11.379 3.4648 16.715 0.15625 5.332-1.8047 9.1875-2.5391 15.293-0.73828 6.1055-3.0391 13.938-2.9766 23.547 0.0625 9.6055 0.90234 25.746 3.3555 34.098 2.4492 8.3516 2.2773 9.1797 2.2422 14.348-0.035156 5.1719-2.082 15.371-1.3438 23.172 0.73438 7.8047 4.7969 18.52 5.7656 23.648 0.97266 5.1328 0.097656 5.1406 0.050781 7.1445-0.042969 2.0039 0.74219 2.5078-0.32422 4.875-1.0703 2.3711-3.3711 5.0859-4.707 6.9961-1.3359 1.9102-1.2148 3.2227-0.82031 3.6445 0.39062 0.42187 0.98828 1.2656 1.7969 1.7969 0.80469 0.52734 1.8867 1.2656 2.4844 1.2422 0.60156-0.023438 0.94141-0.53516 1.3828-0.82812 0.44141-0.29688 1.0664-1.1719 1.2734-0.94141 0.20703 0.23047-0.33594 1.9453-0.03125 2.3203 0.30859 0.37891 1.3477 0.3125 1.8711-0.066406 0.52734-0.38281 0.6875-0.70703 1.2734-1.5234 0.58984-0.81641 1.8008-2.0352 2.2461-3.3828 0.44141-1.3477 1.7656-4.9375 2.0703-6.4922 0.30469-1.5547-0.26953-1.5938-0.24609-2.8359 0.023438-1.2461 0.48047-2.9336 0.38281-4.625-0.09375-1.6914-1.1562-2.9688-0.96484-5.5273 0.1875-2.5547 0.60938-6.0898 1.1367-9.9492 0.52344-3.8594 1.9492-8.8438 2.0078-13.207 0.0625-4.3633-1.4648-9.4414-1.6445-12.973-0.17578-3.5312 0.24219-4.9258 0.57031-8.2188 0.33203-3.293 0.33594-8.5664 0.58984-14.301s0.33984-15.242 0.92969-20.102c0.59375-4.8555 1.9141-9.2305 2.625-9.0469 0.71484 0.18359 1.1523 5.125 1.6602 10.152 0.50781 5.0312 0.63281 14.863 0.96484 20.035 0.33594 5.168 0.74219 7.7266 1.0312 10.992 0.28516 3.2617 0.85938 4.6875 0.69531 8.5977-0.16016 3.9062-1.8633 9.1719-1.6719 14.844 0.19531 5.6758 2.4727 14.441 2.832 19.203 0.35938 4.7578-0.63281 7.1797-0.67578 9.3633-0.042969 2.1797 0.57031 2.3672 0.41406 3.7305-0.15234 1.3594-0.9375 3.125-0.77734 4.2969 0.16016 1.1758 1.2695 1.8516 1.7461 2.7461 0.47656 0.89453 0.16016 1.7031 0.55078 2.7656 0.39453 1.0586 1.3555 2.5547 1.7969 3.5898 0.44531 1.0391 0.66797 2.207 1.4141 2.4961 0.75 0.28906 2.6484-0.21484 3.0703-0.75781 0.42578-0.54297-1.0508-2.1172-0.51562-2.5039 0.53906-0.38281 1.582 1.7305 2.3047 1.8086 0.71875 0.082032 1.957-0.42969 2.4297-0.76562 0.47656-0.33594 0.20703-0.92188 0.41797-1.2422 0.20703-0.32422 0.70313 0.66406 0.96484 0.27344 0.26172-0.38672 0.88281-1.5469 0.60938-2.6055-0.27734-1.0586-1.4961-2.5469-2.2656-3.75-0.76953-1.1992-1.7031-2.4609-2.3516-3.4531-0.64453-0.98828-1.3047-1.4414-1.5195-2.4844-0.21094-1.043 0.32031-1.9727 0.25391-3.4922-0.070313-1.5195-0.90234-3.0312-0.66797-5.6289 0.23438-2.5938 1.4375-4.3281 2.2109-8.0117 0.77734-3.6836 2.9023-9.1758 3.543-14.23 0.64453-5.0547 0.55078-12.246 0.32031-16.102s-2.4531-9.1797-1.6875-16.227c0.76562-7.043 5.0703-18.859 6.2734-26.043 1.2031-7.1836 1.2305-11.531 0.94531-17.062-0.28516-5.5273-1.582-9.6055-2.6523-16.117-1.0703-6.5156-3.5898-16.57-3.7734-22.969-0.1875-6.4023 1.9336-14.234 2.6602-15.434 0.72656-1.1992 1.043 3.5547 1.6953 8.2383 0.65234 4.6797 1.4414 13.324 3.0469 19.852 1.6016 6.5273 5.5352 15.23 6.5703 19.312s0.23438 3.6172-0.36328 5.1836c-0.042968 1.7031-0.30078 2.3633 0.10938 5.0352 0.40625 2.6758 1.7344 9.2148 2.3398 11.012s1.1562 0.57422 1.2812-0.22656c0.12891-0.80469-0.51562-3.6211-0.51562-4.5938-0.003906-0.97656 0.13672-2.1055 0.51172-1.2578s1.2344 5.1523 1.7305 6.332c0.49609 1.1836 1.1211 1.8125 1.2461 0.75781 0.12109-1.0547-0.83594-7.2773-0.51172-7.0898 0.32812 0.1875 1.8125 6.9648 2.4688 8.2227 0.65234 1.2539 1.4336 0.85547 1.4609-0.67969 0.027344-1.5352-1.4648-8.9023-1.2969-9.2188 0.16406-0.31641 1.7578 5.8906 2.2969 7.3203 0.54297 1.4258 0.58984 1.1602 0.9375 1.2422 0.35156 0.078126 1.0547-0.13281 1.1719-0.76172 0.11719-0.625-0.19141-1.5703-0.46094-3-0.26953-1.4336-0.90625-4.2773-1.1523-5.5898-0.24609-1.3164-0.95703-2.8555-0.32812-2.8555s3.4141 2.7305 4.1094 2.8555c0.69922 0.12109 1.5156-0.066406 1.457-0.59766-0.054687-0.52734-0.78125-1.1445-1.793-2.5781-1.0078-1.4375-3.207-4.5977-4.2656-6.0312-1.6133-1.1602-2.1367-1.3398-2.7812-2.4414-0.64844-1.1016-0.74609-0.61328-1.1055-4.1797s-0.10547-12.047-1.0469-17.223c-0.94141-5.1719-1.7188-10.062-2.7969-13.645-1.0742-3.582-1.5391-4.125-2.0039-7.6797-0.46484-3.5508-0.58594-9.5703-0.78516-13.641-0.19922-4.0703 0.50781-7.8516 0.55469-10.637 0.042968-2.7891-0.52734-4.3516-0.96875-5.9414-0.44141-1.5938-2.9414-4.9453-5.6953-6.9297-2.7539-1.9883-7.957-3.4297-10.828-4.9922-2.875-1.5586-5.418-2.668-6.8242-3.6914-1.4062-1.0234-1.5859-2.1094-1.7578-3.4141-0.17188-1.3086 0.42188-2.9141 0.72266-4.4219 0.30078-1.5039 0.64062-3.8125 1.082-4.6094 0.44531-0.80078 1.8086-0.64453 2.5391-1.6992 0.73047-1.0547 1.582-3.1836 1.8477-4.6289 0.26562-1.4453-0.78125-0.95312-1.2188-2.5195-0.44141-1.5703 0.44141-5.5703 0.10156-7.4414-0.34375-1.8711-1.125-2.543-2.1602-3.7852-1.0352-1.2461-2.4258-2.9531-4.0586-3.6758-1.6328-0.72266-3.9336-0.71094-5.7305-0.66406z"/>
  </clipPath>
  <radialGradient id="center-s" cx="369.67" cy="97.258" r="271.95" gradientUnits="userSpaceOnUse">
   <stop stop-color="#26427b" offset=".16406"/>
   <stop stop-color="#4f6899" offset=".32031"/>
   <stop stop-color="#788db7" offset=".47656"/>
   <stop stop-color="#99abd0" offset=".63281"/>
   <stop stop-color="#6c86b7" offset=".78906"/>
   <stop stop-color="#3e609e" offset=".94531"/>
  </radialGradient>
  <clipPath id="center-bv">
   <path d="m466 112h74v239h-74z"/>
  </clipPath>
  <clipPath id="center-bk">
   <path d="m504.27 112.94c-4.082-0.33203-9.9961 2.8984-12.641 6.0273-2.6445 3.125-2.7656 9.0273-3.2266 12.727-0.45703 3.7031 0.88672 6.8828 0.47656 9.4688-0.41406 2.5898-2.9336 4.2969-2.9453 6.0664-0.007813 1.7656 4.0586 3.2773 2.8828 4.543-1.1758 1.2617-1.3359 0.11328-3.0977 1.5195-1.7656 1.4062-5.9102 4.0977-7.4883 6.9219-1.5742 2.8281-1.6914 6.1094-1.9688 10.035-0.27734 3.9258 0.25781 9.293 0.30859 13.52 0.050782 4.2266 0.55469 7.2344 0 11.836-0.55859 4.6016-2.4766 10.176-3.3438 15.777-0.86719 5.6016-1 14.078-1.8633 17.832-0.86719 3.7539-2.5625 3.6602-3.3281 4.6953s-0.55469 1.1445-0.88281 1.8984c-0.33203 0.75391-1.1953 2.2461-1.0898 2.625 0.10547 0.37891 1.125-0.097657 1.7227-0.34766 0.59375-0.24609 1.5703-2.1523 1.8438-1.1406 0.27344 1.0078-0.34375 5.918-0.20703 7.207 0.13281 1.2891 0.72266 1.4844 1.0195 0.51562s0.60547-5.5391 0.75781-6.3281c0.15625-0.78906 0.10938 0.47266 0.16406 1.5938 0.054687 1.1211-0.015625 4.3281 0.16016 5.1367 0.54688 0.97266 0.55078 0.57031 0.79297-0.17188 0.24219-0.74219 0.44141-3.3125 0.65625-4.2773 0.21484-0.96875 0.52734-2.1758 0.63281-1.5195 0.10547 0.65234-0.29687 5.2109-0.25391 5.8203 0.042969 0.61328 0.76172 0.48438 1.0117-0.37891 0.25391-0.86328 0.40234-4.3242 0.50781-4.8086 0.10547-0.48828 0.38281 0.019531 0.50781 0.63281s0.03125 2.5234 0.24219 3.0508c0.21094 0.52734 0.78516 1.5352 1.0234 0.11328 0.23438-1.4258 0.003906-6.25-0.10938-8.5352-0.11328-2.2891-0.79297-2.9375-0.56641-5.1875 0.23047-2.2461 0.51953-3.6445 1.9414-8.3008 1.418-4.6562 5.2578-13.277 6.4531-20.512 1.1953-7.2383-0.027344-20.641 0.72656-22.906 0.75391-2.2695 2.918 5.6719 3.7891 9.3047 0.86719 3.6289 2.1289 8.6211 1.418 12.469-0.71094 3.8516-3.957 6.7031-5.6797 10.633-1.7266 3.9297-3.8477 7.8828-4.668 12.945-0.82422 5.0625-1.125 10.707-0.26953 17.43 0.85938 6.7227 4.2695 18.387 5.4102 22.902 1.1406 4.5117 1.1562 1.543 1.4258 4.1836 0.26562 2.6406 0.30859 6.9961 0.18359 11.656-0.12891 4.6641-1.1172 10.844-0.94531 16.316 0.17578 5.4727 1.6016 11.621 2.7422 16.773 1.1406 5.1562 3.3164 9.8242 4.1016 14.156 0.78906 4.3359 0.70312 9.2656 0.625 11.848s-0.61328 2.5703-1.0977 3.6484c-0.48438 1.0742-0.87891 1.8594-1.8125 2.8086-0.9375 0.94531-3.4023 2.1953-3.8008 2.8711-0.40234 0.67578 0.86719 0.85547 1.3945 1.1758 0.52734 0.32422 0.78125 0.59375 1.7734 0.76172 0.99219 0.16797 2.8047 0.29297 3.6719 0.37891 0.86328 0.085938 1.3242-0.23438 1.8984-0.25391 0.57031-0.015625 1.0586 0.14453 1.543 0.14453 0.48438 0 0.88672 0.34375 1.3672-0.14453s0.94922-2.1094 1.5195-2.7852c0.56641-0.67188 1.8555-0.83203 1.7695-2.4023-0.085937-1.5703-1.6797-2.4922-2.0391-6.3906-0.36328-3.8984-0.53906-11.012-0.11719-16.992 0.42188-5.9844 2.5664-12.828 2.6484-18.902 0.078125-6.0781-2.2656-8.1016-2.1758-17.551 0.089843-9.4492 2.3047-31.172 2.7148-39.148 0.40625-7.9805-0.50781-8.0938-0.26953-8.7227 0.23438-0.63281 1.3711-0.57031 1.5625 0.75781 0.1875 1.3281-0.48438 4.4648-0.42578 7.2148s0.56641 6.1875 1.1523 10.551c0.58594 4.3594 2.207 9.2305 2.3672 15.621 0.15625 6.3906-1.0273 16.961-1.4219 22.723-0.39453 5.7578-1.3398 7.0195-0.94531 11.832 0.39453 4.8164 3 11.598 3.3125 17.043 0.31641 5.4453-0.86328 12.457-1.4258 15.637-0.5625 3.1758-2.1367 4.5859-2.2031 6.082-0.0625 1.5 1.457 2.125 1.8242 2.9023 0.36328 0.78125 0.53516 1.3359 0.88281 1.7734 0.34766 0.43359 0.37891 0.66797 1.2031 0.83594 0.82422 0.17188 1.9883 0.30469 3.7344 0.17578 1.7461-0.12891 5.5742-0.40625 6.7344-0.95703 1.1602-0.54688 1.3711-1.5 0.22656-2.332-1.1445-0.83203-2.8203-2.1758-3.543-3.0391-0.72656-0.86328-1.332-1.9492-1.6914-3.0273-0.36328-1.0781-0.53125-0.96094-0.47266-3.4414 0.054687-2.4805-0.17969-6.7578 0.82031-11.449 0.99609-4.6914 4.0625-10.734 5.1719-16.691 1.1094-5.957 1.6328-14.656 1.4883-19.055-0.14844-4.3984-0.84766-6.3477-0.85547-10.363-0.003906-4.0156-0.33594-7.3516 0.82031-13.73 1.1562-6.3789 5.0625-17.762 6.1211-24.547 1.0625-6.7812 0.89062-11.328 0.24219-16.16-0.64844-4.832-2.2969-8.2695-4.125-12.832s-6.4023-8.7734-6.8438-14.543c-0.44141-5.7734 3.3398-18.734 4.1992-20.094 0.85547-1.3633 0.83203 9.0742 0.94531 11.922 0.11719 2.8516 0.17578 3.8125 0.25391 5.2969 0.078125 1.4844-0.28906 2.2109 0.85156 6.5195 1.1445 4.3125 4.6406 14.57 5.9961 19.34 1.3555 4.7695 1.9609 7.0234 2.1484 9.2734 0.1875 2.2539-0.94141 3.0469-1.0234 4.2305-0.078124 1.1836 0.1875 2.6602 0.29688 4.0117 0.10547 1.3477 0.21484 3.1914 0.34766 4.0859 0.13672 0.89453 0.31641 1.1602 0.45703 1.2812s0.25 0.19141 0.38281-0.55859c0.13672-0.75 0.23437-4.293 0.42187-3.9375 0.1875 0.35156 0.49219 4.5 0.70703 5.0664 0.21094 0.5625 0.82031 0.65625 0.98438-0.28125 0.16406-0.94141-0.25781-5.75 0-5.3516 0.25781 0.40234 0.75391 5.3047 1.125 6.3359 0.36719 1.0273 0.94531 0.45703 1.0898-0.15625 0.14063-0.61719-0.22656-2.2539-0.24219-3.2812-0.015625-1.0312-0.074219-3.0234 0.13672-2.8984 0.21094 0.12891 0.42969 4.1016 0.75 4.9219 0.31641 0.82031 1.082 1.1016 1.1602-0.007812 0.078125-1.1055-0.75-5.3984-0.69531-6.6406 0.058593-1.2383 0.62891-0.88281 1.0391-0.80469 0.40625 0.078125 0.72656 1.2383 1.2656 1.6875 0.53516 0.44922 1.2891 0.34766 1.3945 0.027344 0.10156-0.32031-0.40234-1.0352-0.77734-1.9531-0.37109-0.92188-0.50391-1.0469-1.2773-2.4492-0.77734-1.4023-1.9688-0.61328-2.8711-4.8867-0.90625-4.2734-1.7344-15.129-2.5547-20.754-0.82031-5.625-2-7.2812-2.3711-12.996-0.37109-5.7188 0.50391-15.418 0.15234-21.305-0.35156-5.8867-0.55078-7.2656-1.3789-10.352-0.82812-3.0859-1.9727-6.8711-3.5898-8.1641-1.6211-1.2891-6.0078-1.5664-7.0195-3.2578-1.0078-1.6953-0.99219-4.293 0.96094-6.8984 1.9531-2.6016-1.3945-4.6914-1.9062-8.7266-0.51562-4.0312 0.99219-11.566-1.1797-15.48-2.168-3.9141-7.7539-7.6797-11.832-8.0078z"/>
  </clipPath>
  <radialGradient id="center-r" cx="466.05" cy="112.91" r="248.71" gradientUnits="userSpaceOnUse">
   <stop stop-color="#463760" offset=".10938"/>
   <stop stop-color="#be5f61" offset=".26562"/>
   <stop stop-color="#f58165" offset=".60938"/>
  </radialGradient>
  <clipPath id="center-az">
   <path d="m267 322h29v45h-29z"/>
  </clipPath>
  <clipPath id="center-ao">
   <path d="m286.95 366.46c3.1172-0.36719 6.4844-2.4453 7.6328-4.3984 1.1484-1.957 0.023438-5.2461-0.75-7.332-0.76953-2.0859-3.3438-3.6133-3.8867-5.1797-0.53906-1.5664 0.875-3.0078 0.65234-4.2227-0.22656-1.2148-2.4531-1.5508-2-3.0625 0.44922-1.5117 3.9492-3.6875 4.6992-6.0117 0.74609-2.3203 1.0703-5.6211-0.21094-7.918-1.2812-2.2969-4.4648-5.6406-7.4805-5.8672-3.0195-0.22266-7.6406 1.8359-10.633 4.5234-2.9961 2.6875-6.5547 7.668-7.3242 11.609-0.77344 3.9375-0.60938 12.281 0.76172 16.559 1.375 4.2773 4.3789 7.2188 7.4688 9.1016 3.0898 1.8828 7.9531 2.5664 11.07 2.1992z"/>
  </clipPath>
  <radialGradient id="center-h" cx="281.13" cy="344.5" r="26.089" gradientUnits="userSpaceOnUse">
   <stop stop-color="#efa97b" offset=".11719"/>
   <stop stop-color="#df8e65" offset=".27344"/>
   <stop stop-color="#cf734f" offset=".42969"/>
   <stop stop-color="#bf5839" offset=".58594"/>
   <stop stop-color="#ae3d23" offset=".74219"/>
   <stop stop-color="#9e220d" offset=".89844"/>
  </radialGradient>
  <clipPath id="center-ai">
   <path d="m285 340h18v42h-18z"/>
  </clipPath>
  <clipPath id="center-ah">
   <path d="m290.4 341.74c2.1211 1.418 6.3984 4.125 8.2969 7.5586 1.8945 3.4375 2.4102 7.8164 3.0859 13.047 0.67578 5.2305 1.1875 15.469 0.96484 18.336-0.22656 2.8672-1.5781-1.293-2.3164-1.1328-0.73828 0.15625-1.8008 3.0547-2.1211 2.0781s0.28906-4.0977 0.19141-7.9414c-0.09375-3.8438-0.22266-11.91-0.76953-15.121-0.54688-3.2148-1.6719-3.5312-2.5078-4.1602-0.83594-0.62891-1.0312 1.6055-2.5078 0.37891-1.4805-1.2305-5.2422-5.418-6.3672-7.75s-1.125-5.4219-0.38672-6.2383c0.74219-0.82031 2.3164-0.47266 4.4375 0.94531z"/>
  </clipPath>
  <linearGradient id="center-af" x1="68.476" x2="72.737" y1="91.667" y2="91.667" gradientTransform="scale(4.1653)" gradientUnits="userSpaceOnUse">
   <stop stop-color="#fae090" offset=".49219"/>
   <stop stop-color="#e7c763" offset=".64844"/>
   <stop stop-color="#d5ad35" offset=".80469"/>
   <stop stop-color="#c29408" offset=".96094"/>
  </linearGradient>
  <clipPath id="center-ag">
   <path d="m306 336h18v42h-18z"/>
  </clipPath>
  <clipPath id="center-cq">
   <path d="m315.76 337.89c-2.1211 1.418-3.9844 3.8125-5.3984 7.1836s-2.4141 7.8125-3.0859 13.043c-0.67578 5.2305-1.1914 15.469-0.96484 18.336 0.22266 2.8672 1.5742-1.2891 2.3125-1.1328 0.74219 0.15625 1.8008 3.0547 2.125 2.0781 0.32031-0.97656-0.29297-4.0938-0.19531-7.9375 0.097657-3.8438 0.22656-11.723 0.77344-15.125s0.96484-4.1602 2.5078-5.293 5.2695-0.47266 6.75-1.5117c1.4805-1.0391 0.99609-2.3945 2.1211-4.7266 1.125-2.332 1.543-5.418 0.38672-6.2383-1.1562-0.82031-5.207-0.09375-7.332 1.3242z"/>
  </clipPath>
  <linearGradient id="center-ae" x1="-77.454" x2="-73.115" y1="90.2" y2="90.2" gradientTransform="scale(-4.1863 4.1863)" gradientUnits="userSpaceOnUse">
   <stop stop-color="#f1d47b" offset=".57031"/>
   <stop stop-color="#debb4d" offset=".72656"/>
   <stop stop-color="#cca11f" offset=".88281"/>
  </linearGradient>
  <clipPath id="center-cp">
   <path d="m313 319h29v46h-29z"/>
  </clipPath>
  <clipPath id="center-co">
   <path d="m313.94 330.36c-0.19141-1.6367-0.73828-4.0312 0.19141-5.8594 0.93359-1.8281 2.7031-4.5703 5.4023-5.1055 2.6992-0.53516 7.6211 0.28516 10.805 1.8906 3.1797 1.6094 6.3945 3.9375 8.293 7.75 1.8984 3.8125 3.5703 10.02 3.0859 15.125-0.48047 5.1055-3.0859 12.035-5.9805 15.5-2.8945 3.4648-7.9727 5.3867-11.379 5.293-3.4102-0.09375-7.4297-3.4023-9.0664-5.8594-1.6406-2.457-1.1602-6.7734-0.77344-8.8828 0.38672-2.1133 2.1562-3.0586 3.0859-3.7812 0.93359-0.72656 2.2188 0.0625 2.5078-0.57031 0.28906-0.62891-0.83594-2.0469-0.76953-3.2109 0.0625-1.168 1.832-2.3945 1.1562-3.7812-0.67578-1.3867-4.1484-3.1211-5.207-4.5391-1.0625-1.418-1.1602-2.332-1.3516-3.9688z"/>
  </clipPath>
  <radialGradient id="center-g" cx="327.7" cy="342.1" r="26.86" gradientUnits="userSpaceOnUse">
   <stop stop-color="#f1ab7d" offset=".10547"/>
   <stop stop-color="#e09067" offset=".26172"/>
   <stop stop-color="#d07551" offset=".41797"/>
   <stop stop-color="#c05a3b" offset=".57422"/>
   <stop stop-color="#af3f25" offset=".73047"/>
   <stop stop-color="#9f240f" offset=".88672"/>
  </radialGradient>
  <clipPath id="center-cn">
   <path d="m316 391h14v22h-14z"/>
  </clipPath>
  <clipPath id="center-cm">
   <path d="m316.27 408.45c0.45703-1.8359 4.1992-4.0195 5.4727-6.8906 1.2773-2.8711 0.09375-11.684 2.1914-10.336 2.0977 1.3516 4.2852-0.027344 4.9258 0.86328 0.63672 0.89062-0.39844 2.0078-1.0977 4.4805-0.69922 2.4688-1.6406 7.6641-3.0977 10.332-1.4609 2.6719-4.1055 5.168-5.6562 5.6875-1.5508 0.51562-3.1914-2.2969-2.7383-4.1367z"/>
  </clipPath>
  <linearGradient id="center-aa" x1="88.055" x2="91.869" y1="115.05" y2="115.05" gradientTransform="scale(3.5866)" gradientUnits="userSpaceOnUse">
   <stop stop-color="#fbe192" offset=".48047"/>
   <stop stop-color="#e8c763" offset=".63672"/>
   <stop stop-color="#d4ad34" offset=".79297"/>
   <stop stop-color="#c19305" offset=".94922"/>
  </linearGradient>
  <clipPath id="center-cl">
   <path d="m273 391h14v23h-14z"/>
  </clipPath>
  <clipPath id="center-ck">
   <path d="m286.73 408.91c-0.45703-1.8359-4.2266-4.0469-5.4727-6.8906-1.2461-2.8438-1.2422-8.6211-2.0039-10.164-0.76562-1.5391-1.7188 0.89063-2.5703 0.91797-0.85156 0.03125-2.4805-0.76562-2.7227-0.054687-0.23828 0.70703 0.55078 1.8633 1.2773 4.3047 0.73047 2.4414 1.6445 7.668 3.1016 10.336 1.4609 2.6719 4.1055 5.168 5.6562 5.6836 1.5508 0.51953 3.1914-2.2969 2.7344-4.1328z"/>
  </clipPath>
  <linearGradient id="center-z" x1="-79.991" x2="-76.241" y1="115.06" y2="115.06" gradientTransform="scale(-3.5903 3.5903)" gradientUnits="userSpaceOnUse">
   <stop stop-color="#f0d277" offset=".58203"/>
   <stop stop-color="#ddb849" offset=".73828"/>
   <stop stop-color="#ca9e1a" offset=".89453"/>
  </linearGradient>
  <clipPath id="center-cj">
   <path d="m282 402h45v41h-45z"/>
  </clipPath>
  <clipPath id="center-ci">
   <path d="m292.34 405.69c-3.1914 1.6641-8.2656 4.0742-9.3008 7.0625-1.0352 2.9844 0.57812 7.7227 3.1016 10.852 2.5234 3.1289 9.5156 5.8281 12.039 7.9258 2.5234 2.0938 2.5547 3.043 3.1016 4.6484 0.54688 1.6094-0.82422 4.1367 0.17969 4.9961 1.0039 0.86328 4.5898 1.6367 5.8398 0.17188 1.2461-1.4648-0.76172-6.3438 1.6406-8.957 2.4023-2.6133 9.8477-4.1055 12.77-6.7188 2.918-2.6133 4.5273-6.1133 4.7422-8.957 0.21094-2.8438-1.125-5.9414-3.4688-8.0977-2.3398-2.1523-7.1133-3.8438-10.578-4.8203s-6.75-1.3203-10.215-1.0352c-3.4648 0.28906-6.6562 1.2656-9.8516 2.9297z"/>
  </clipPath>
  <radialGradient id="center-f" cx="304.6" cy="422.42" r="29.474" gradientUnits="userSpaceOnUse">
   <stop stop-color="#e7a370" offset=".125"/>
   <stop stop-color="#bd7a38" offset=".28125"/>
   <stop stop-color="#945200" offset=".4375"/>
   <stop stop-color="#933c00" offset=".625"/>
   <stop stop-color="#931f00" offset=".87109"/>
  </radialGradient>
  <clipPath id="center-ch">
   <path d="m266 136h35v64h-35z"/>
  </clipPath>
  <clipPath id="center-cf">
   <path d="m296.6 153.5c0.27344-2.6602 3.3984-8.4219 2.5781-11.258-0.82031-2.8359-3.832-6.3711-7.5039-5.7578-3.6758 0.60938-10.676 4.1875-14.543 9.4258-3.8711 5.2344-6.8438 14.527-8.6797 21.988-1.8359 7.4648-2.4258 17.457-2.3477 22.777 0.078126 5.3242 0.078126 8.8594 2.8164 9.1641 2.7383 0.30469 9.5-5.9766 13.605-7.3281 4.1055-1.3555 8.0898 0.87109 11.023-0.78516 2.9297-1.6602 5.5117-5.2812 6.5664-9.1641 1.0547-3.8828 0.19531-10.082-0.23438-14.137-0.42969-4.0586-1.9531-7.7695-2.3438-10.211-0.39062-2.4453-1.2148-2.0508-0.9375-4.7148z"/>
  </clipPath>
  <radialGradient id="center-e" cx="266.1" cy="136.41" r="72.223" gradientUnits="userSpaceOnUse">
   <stop stop-color="#9e2512" offset=".058594"/>
   <stop stop-color="#bb5943" offset=".21484"/>
   <stop stop-color="#d78e74" offset=".37109"/>
   <stop stop-color="#f3c3a5" offset=".52734"/>
   <stop stop-color="#d99278" offset=".68359"/>
   <stop stop-color="#b6523c" offset=".83984"/>
   <stop stop-color="#941100" offset=".99609"/>
  </radialGradient>
  <clipPath id="center-ce">
   <path d="m309 136h35v63h-35z"/>
  </clipPath>
  <clipPath id="center-cd">
   <path d="m311.14 165.02c-0.39062 3.8828-1.9531 10.82-1.6406 14.398s1.3281 5.2812 3.5195 7.0703c2.1875 1.7891 6.918 2.6641 9.6172 3.6641 2.6953 1.0039 4.0664 0.91797 6.5664 2.3594 2.5039 1.4375 6.0586 6.7188 8.4453 6.2812 2.3828-0.4375 5.707-2.6172 5.8633-8.9023 0.15625-6.2812-1.4453-20.332-4.9258-28.797s-11.492-18.152-15.949-21.992c-4.457-3.8398-8.6797-2.4453-10.789-1.0469-2.1133 1.3945-1.8789 6.4141-1.8789 9.4258 0 3.0078 1.6445 5.7578 1.8789 8.6367 0.23438 2.8828-0.3125 5.0195-0.70703 8.9023z"/>
  </clipPath>
  <radialGradient id="center-d" cx="309.46" cy="136.61" r="70.922" gradientUnits="userSpaceOnUse">
   <stop stop-color="#f5be98" offset=".22266"/>
   <stop stop-color="#f0bda0" offset=".38281"/>
   <stop stop-color="#d89177" offset=".53906"/>
   <stop stop-color="#c1654e" offset=".69531"/>
   <stop stop-color="#a93a26" offset=".85156"/>
  </radialGradient>
  <clipPath id="center-cc">
   <path d="m288 125h38v46h-38z"/>
  </clipPath>
  <clipPath id="center-cb">
   <path d="m300.82 130.2c-0.58594 3.8828 1.3711 15.012 0.23438 19.113-1.1328 4.1016-5.2773 5.0156-7.0352 5.4961-1.7578 0.48047-2.6992-2.9219-3.5195-2.6172-0.82031 0.30469-1.9922 3.2305-1.4062 4.4492 0.58594 1.2227 4.6914 1.1797 4.9258 2.8828 0.23438 1.6992-3.4023 5.5391-3.5195 7.3281-0.11719 1.7891 1.6445 4.1914 2.8164 3.4062 1.1719-0.78516 2.6562-6.1094 4.2227-8.1172 1.5625-2.0078 3.0859-3.3164 5.1602-3.9258 2.0703-0.61328 5.043-0.17578 7.2695 0.26172 2.2305 0.43359 5.082 0.60938 6.0977 2.3555 1.0195 1.7461-0.54688 6.8945 0 8.1172 0.55078 1.2188 2.7383 0.12891 3.2852-0.78906 0.54688-0.91406-0.15625-3.1836 0-4.7109 0.15625-1.5273-0.3125-3.5781 0.9375-4.4492 1.2539-0.875 4.3398-0.96094 4.9258-2.0977 0.58594-1.1328-0.625-4.4062-1.4062-4.7109-0.78125-0.30469-1.1328 2.5742-3.2852 2.8789-2.1484 0.30859-7.582 0.61328-9.6172-1.0469-2.0312-1.6562-2.1875-4.7109-2.5781-8.9023-0.39062-4.1875 0.85938-13.047 0.23438-16.23s-2.6602-2.9688-3.9883-2.8789c-1.3281 0.085937-3.168 0.30469-3.7539 4.1875z"/>
  </clipPath>
  <linearGradient id="center-y" x1="47.796" x2="53.974" y1="28.232" y2="28.232" gradientTransform="scale(6.0362)" gradientUnits="userSpaceOnUse">
   <stop stop-color="#7e5f00" offset=".0078125"/>
   <stop stop-color="#aa8d33" offset=".16406"/>
   <stop stop-color="#d6bb69" offset=".32031"/>
   <stop stop-color="#fce294" offset=".47656"/>
   <stop stop-color="#e9c967" offset=".63281"/>
   <stop stop-color="#d6b039" offset=".78906"/>
   <stop stop-color="#c4960c" offset=".94531"/>
  </linearGradient>
  <clipPath id="center-ca">
   <path d="m268 234h56v55h-56z"/>
  </clipPath>
  <clipPath id="center-bz">
   <path d="m287.16 234.72c-0.91016-0.23828-2.4062 0.33594-2.6289 2.4258-0.21875 2.0898-0.69141 6.543 1.3164 10.117 2.0078 3.5781 8.4336 8.5664 10.734 11.332 2.2969 2.7656 2.5156 3.6758 3.0664 5.2617 0.54687 1.5859 1.2773 2.9023 0.21875 4.25-1.0586 1.3477-4.3828 2.832-6.5742 3.8438-2.1875 1.0117-2.7734 1.3164-6.5703 2.2266-3.7969 0.91016-13.434 1.4492-16.207 3.2383-2.7773 1.7891-1.8984 6.9805-0.44141 7.4883 1.4609 0.50391 5.6602-4.1836 9.2031-4.4531 3.5391-0.26953 8.3594 1.5508 12.047 2.832 3.6875 1.2852 5.9141 4.7227 10.074 4.8594 4.1641 0.13281 11.281-1.5195 14.895-4.0469 3.6172-2.5312 5.7344-6.6445 6.793-11.133 1.0586-4.4844 1.4961-11.129-0.4375-15.781-1.9375-4.6562-7.1562-10.996-11.172-12.145-4.0156-1.1445-9.8945 4.793-12.926 5.2617-3.0273 0.47266-3.832-0.46875-5.2578-2.4258-1.4219-1.957-2.4453-7.1523-3.2852-9.3086-0.83984-2.1602-1.9336-3.6094-2.8477-3.8438z"/>
  </clipPath>
  <radialGradient id="center-c" cx="268.7" cy="234.67" r="76.92" gradientUnits="userSpaceOnUse">
   <stop stop-color="#b88334" offset=".11328"/>
   <stop stop-color="#f3d689" offset=".26953"/>
   <stop stop-color="#d5945e" offset=".42578"/>
   <stop stop-color="#a43117" offset=".58203"/>
   <stop stop-color="#a03600" offset=".74219"/>
   <stop stop-color="#b36d00" offset=".89844"/>
  </radialGradient>
  <clipPath id="center-by">
   <path d="m589 255h62v54h-62z"/>
  </clipPath>
  <clipPath id="center-bx">
   <path d="m599.53 300.64c2.4102 1.6758 4.2031-0.25 8.8711 1.0039 4.6719 1.2578 12.297 7.875 19.148 6.5352 6.8477-1.3398 18.988-6.1992 21.949-14.574 2.957-8.3789 1.1641-30.074-4.2031-35.684-5.3711-5.6133-20.082 2.0938-28.02 2.0078-7.9414-0.082032-15.023-4.7734-19.613-2.5117-4.5938 2.2617-7.3164 10.387-7.9414 16.082-0.62109 5.6953 2.8828 13.488 4.2031 18.094 1.3242 4.6055 3.1914 7.3711 5.6055 9.0469z"/>
  </clipPath>
  <radialGradient id="center-b" cx="620.28" cy="282.12" r="40.338" gradientUnits="userSpaceOnUse">
   <stop stop-color="#f9df8e" offset=".49609"/>
   <stop stop-color="#e7c661" offset=".65234"/>
   <stop stop-color="#d5ad35" offset=".80859"/>
   <stop stop-color="#c29509" offset=".96484"/>
  </radialGradient>
  <clipPath id="center-bw">
   <path d="m576 240h84v99h-84z"/>
  </clipPath>
  <clipPath id="center-bu">
   <path d="m596.67 293.18c0.60547-1.5469 3.6953-0.58984 4.3398-1.4805 0.64453-0.89453 0.25-3.0547-0.47656-3.8789-0.72266-0.82422-3.2188-0.31641-3.8633-1.0742-0.64453-0.75391 0.30078-2.3555 0-3.4648-0.69141-2.5352-2.8477-0.10156-2.8477-1.7109 0-1.6055 3.1484-1.8242 2.8477-4.4688-0.30078-2.6406-4.1484-1.6172-4.6523-2.7773 0.35938 0.98828 1.5273 0.34766 1.625-4.1875 0.09375-4.5391-3.4883-6.3945-2.9844-5.8203 0.50391 2.125 3.6445-4.4297 6.0117-4.3633 2.3633 0.070313 5.6562 4.7695 8.1797 4.7695 2.5234 0 6.3359-4.5703 6.957-4.7695 0.625-0.19922 1.7109 4.4062 4.543 4.2891 2.8281-0.12109 2.6367-3.6953 4.0352-4.2891 1.4023-0.59375 1.2344 2.2031 4.3633 0.72266 3.0195-1.125 3.2578-4.2227 4.1719-4.1211-0.37891-0.37109 0.26953 3.6719 3.3945 4.5391 3.125 0.86719 2.4844-4.0586 3.7148-4.3555 1.2266-0.29688 0.5625 2.7461 3.6523 2.5664 2.6641 0.53906 3.4648-1.832 3.9141-1.4922 0.44922 0.33594-1.6094 0.54688-1.2188 3.5234 0.82031 3.5781 2.8359 1.8047 2.2617 3.5859-0.57812 1.7852-1.8125 0.42969-2.0547 4.8516-0.24609 4.4219 2.3594 3.6641 2.5273 5.1836 0.16797 1.5195-1.3086 2.7734-1.5117 3.9297s2.2695 3.1055 3.1914 3.25c-1.3398 1.3398-3.7734 0.59766-2.1836 4.0742 1.5898 3.4766 2.7734 0.56641 3.3164 1.7188 0.54297 1.1562-3.3125 1.8047-3.5 2.8125-0.94531 3.6367 3.4961 4.7266 2.5859 5.2617-0.91016 0.53125-3.0039-1.1758-4.6016 0.32031-1.5977 1.4922 0.1875 4.3945-0.46484 5.0586-0.64844 0.66406-2.3516-1.9023-3.5547-2.1523-1.1992-0.25-2.2344-0.87109-3.4336-0.30469-1.1953 0.5625-3.7734 4.0234-3.7422 3.6953 0.24219-0.32812-4.2852-3.5781-5.7812-3.6875-1.4961-0.10938-2.1367 4.2852-3.1914 3.0352-1.0547-1.25-1.5586-3.9336-3.1445-5.043-1.582-1.1055-4.5508-2.1445-6.3555-1.6094-1.8047 0.53906-2.3242 4.3281-2.6641 6.3281-0.33594 2 0.55469 2.6328 0.63672 5.668 0.085937 3.0391-2.0469 7.6367-1.9336 11.051 0.11328 3.4141 2.3633 6.4141 2.6094 9.4453 0.25 3.0312-1.7383 7.0586-1.125 8.7461 0.61328 1.6914 1.3906 1.4883 2.5547 1.6367 1.1602 0.14453 3.4609 1.0625 4.4219-0.75391 0.96484-1.8125 0.64453-7.6055 1.3555-10.129 0.71484-2.5195 2.5195-2.8828 2.9297-5 0.41016-2.1133 0.050781-6.9883 0.87891-7.6953 0.82422-0.71094 2.7227 3.5 4.0781 3.4492 1.3555-0.050781 2.707-0.34766 4.0547-3.75 2.2461 2.3477 5.1719 3.4141 7.6836 2.9141 2.5156-0.5 6.8555-1.0938 7.4062-5.9141 2.5781 1.9297 6.5273-0.23047 7.8516-1.832 1.3281-1.6016-1.0664-5.3633 0.10938-7.7734 0.42578-0.73828 6.3438-0.30078 5.6641-5.6172-0.68359-5.3203-2.8516-3.4023-3.9375-4.7695-1.0898-1.3711 0.89062-0.94141 1.6055-1.7734 0.71094-0.83203 2.5273-2.3086 2.6719-3.2266 0.14453-0.91797 0.80469-0.52344-1.2734-3.3477-0.67578-1.3906-2.9141 0.09375-2.7812-1.4023-0.089844-0.85547 2.9219-0.50391 2.6758-3.5-0.86719-3.2891-3.0078-2.5273-2.9102-3.5859 0.097657-1.0547 3.3477-1.2734 3.3945-4.0664 0.042969-2.7969-2.6289-2.9648-2.4844-4.0938 0.039062-0.76562 2.5781-4.8008 2.3789-7.0898-0.19531-2.293-3.2852-5.3789-3.5742-6.6562 0.89844-2.4688 2.875-4.2812 1.1953-7.0938-1.6797-2.8086-6.293-3.7578-7.4023 0.28125-2.1875-0.98438-0.058594-5.7695-4.6406-4.8594s-3.2461 2.3203-4.1133 3.8711c-1.5156 0.71484-4.5352-1.4922-6.0469-0.89844-1.5117 0.58984-1.8828 3.7109-3.0234 4.4492-1.1406 0.74219-0.87109-3.2109-3.8281-3.2461-2.6367 0.20312-1.6914 4.082-2.9297 3.7461-1.2383-0.33203-2.8555-2.5664-4.5039-2.4961-1.6523 0.066406-3.8164 2.8633-5.3945 2.9062-1.5781 0.039062-2.75-2.7148-4.0664-2.6562-1.3164 0.054687-2.7773 4.043-3.8281 2.9961-1.0508-1.043-2.5898-5.6758-4.3164-6.1719-1.7266-0.5-5.1992 3.293-6.0469 3.1758-0.62891 0.11719-2.8359-4.5703-6.4688-3.7734-3.6289 0.79297-3.2734 6.0586-3.6875 6.3789-1.5977 1.5195-4.3203-1.9648-6.0078 1.1758-1.6836 3.1406 1.2305 4.6758 1.0625 6.1914-0.16797 1.5195-3.5781 2.2734-3.2539 5.7852 0.32031 3.5156 4.5781 4.5859 4.543 5.9727-0.03125 1.3828-2.0742-0.32422-4.7461 2.3359-1.2734 2.3047-0.51562 5.3828 0.089843 6.8086 0.60156 1.4258 3.1914 1.0234 3.5312 1.7539 0.33594 0.72656-1.4219 0.91406-1.5039 2.6094-0.085937 1.6992 0.85547 5.7617 1.8984 7.0703 1.0469 1.3086 4.5898 1.5 4.3711 0.78906-0.21484-0.71094-3.0586 4.9453-2.4414 7.1367 0.61719 2.1914 3.0977 4.4219 4.9609 5.8867 1.8633 1.4648 5.9648-0.75391 7.3398-2.3438 1.375-1.5859 3.6836-1.6445 0.91016-7.1797z"/>
  </clipPath>
  <linearGradient id="center-x" x1="63.257" x2="72.495" y1="37.165" y2="37.165" gradientTransform="scale(9.1095)" gradientUnits="userSpaceOnUse">
   <stop stop-color="#8d7a4b" offset=".37891"/>
   <stop stop-color="#b08915" offset=".53516"/>
   <stop stop-color="#a74900" offset=".69141"/>
   <stop stop-color="#932800" offset=".84766"/>
  </linearGradient>
  <clipPath id="center-bt">
   <path d="m640 374h18v16h-18z"/>
  </clipPath>
  <clipPath id="center-bs">
   <path d="m651.33 375.13c-1.2461 0.23438-3.6992 0.0625-5.3945 1.0234-1.6992 0.96094-3.8906 3.1758-4.7891 4.7422-0.89844 1.5625-0.79688 3.3594-0.60938 4.6484 0.1875 1.2852 0.20313 2.4453 1.7422 3.0664 1.5352 0.62109 5.2812 1.2266 7.4844 0.65234 2.207-0.57422 4.4531-2.6523 5.7461-4.0898 1.2891-1.4414 1.668-3.2695 2-4.5586 0.33594-1.2852 0.68359-2.1836 0-3.1602-0.67969-0.97656-3.0469-2.3242-4.0898-2.6953-1.043-0.37109-0.83984 0.14062-2.0898 0.37109z"/>
  </clipPath>
  <radialGradient id="center-a" cx="649.16" cy="382.06" r="11.478" gradientUnits="userSpaceOnUse">
   <stop stop-color="#fde498" offset=".0078125"/>
   <stop stop-color="#edc380" offset=".16406"/>
   <stop stop-color="#dca268" offset=".32031"/>
   <stop stop-color="#cb8050" offset=".47656"/>
   <stop stop-color="#bb5f38" offset=".63281"/>
   <stop stop-color="#aa3d20" offset=".78906"/>
   <stop stop-color="#991c08" offset=".94531"/>
  </radialGradient>
  <clipPath id="center-br">
   <path d="m576 372h21v18h-21z"/>
  </clipPath>
  <clipPath id="center-bq">
   <path d="m592.92 378.29c-1.1328-0.99219-2.7422-2.4453-4.5273-3.3477-1.7812-0.89844-4.3516-2.1836-6.1797-2.043s-3.8594 1.5508-4.7891 2.8828c-0.92578 1.332-1.2461 3.5-0.78125 5.1133 0.46484 1.6094 1.3047 3.1445 3.5703 4.5547 2.2617 1.4102 7.4102 3.9648 10.008 3.9062 2.5977-0.0625 4.7461-2.8672 5.5742-4.2773 0.82422-1.4102-0.14844-3.0547-0.60938-4.1836-0.46484-1.1328-1.1328-1.6133-2.2656-2.6055z"/>
  </clipPath>
  <radialGradient id="center-q" cx="586.28" cy="381.13" r="12.832" gradientUnits="userSpaceOnUse">
   <stop stop-color="#f3d08a" offset=".10156"/>
   <stop stop-color="#e3af72" offset=".25781"/>
   <stop stop-color="#d28e5a" offset=".41406"/>
   <stop stop-color="#c16c42" offset=".57031"/>
   <stop stop-color="#b14b29" offset=".72656"/>
   <stop stop-color="#a02911" offset=".88281"/>
  </radialGradient>
  <clipPath id="center-bp">
   <path d="m574 363h87v43h-87z"/>
  </clipPath>
  <clipPath id="center-bo">
   <path d="m575.39 376.74c-2.4492-3.832-1.0859-6.5625 1.0508-8.7656 2.1328-2.1992 8.5234-4.8828 11.758-4.4453 3.2344 0.44141 5.6211 5.5977 7.6406 7.082s2.6836 2.7227 4.4766 1.8281c1.7969-0.89453 5.1133-5.6406 9.2461-6.7266 4.1367-1.0859 11.211-0.91797 15.566 0.21094 4.3555 1.1289 7.957 6.4023 10.566 6.5586 2.6133 0.15625 3.1836-4.1055 5.1016-5.6211 1.9141-1.5156 4.4336-3.0391 6.3906-3.4727 1.957-0.43359 3.3867-0.17969 5.3594 0.86719 1.9766 1.0469 5.1523 3.7539 6.4883 5.4141 1.332 1.6562 1.6484 2.8477 1.5195 4.5352-0.125 1.6914-1.7383 4.9492-2.2891 5.6016-0.55469 0.64844-0.67188-1.4102-1.0156-1.6953-0.34766-0.28906-0.94531 0.25781-1.0625-0.019531-0.11719-0.28125 0.46484-1.2695 0.36328-1.6562-0.097657-0.38281-1.2617 0.29688-1.5664 0.09375-0.30469-0.19922 0.13281-1.2695-0.26172-1.3008-0.48828-0.41797-1.3477 0.90625-1.4805 0.36719-0.12891-0.54297 1.4648-2.6875 0.69922-3.6211-0.76953-0.93359-2.9062-1.8555-4.2578-1.9766-1.3477-0.125-1.4297-0.5625-3.8398 1.2305-2.4102 1.7969-6.793 6.832-9.5742 8.2344-2.7812 1.4023-5.5156-1.168-7.1172 0.18359-1.6016 1.3477-1.7031 5.6484-2.5 7.9141s-2.6094 2.2969-2.2812 5.6797c0.32422 3.3828 0.32812 2.1484 0.58203 4.0234 0.25391 1.8711-0.40234 5.043-1.3125 6.4727-0.91406 1.4297-3.125 2.2969-4.1523 2.1016-1.0312-0.19531-1.3984-1.4219-2.0234-3.2773-0.96875 1.9609-1.8164 3.0195-2.7617 3.3125-0.94531 0.29688-2.2188-0.37891-2.9141-1.5352-0.69141-1.1523-1.1602-3.6211-1.2461-5.3867-0.089844-1.7617 1.1602-3.3633 0.71484-5.1953-0.44141-1.8281-2.7188-4.0039-3.3672-5.7891-0.64844-1.7891-1-3.8359-1.3906-5.3008-0.13281-3.3242 0.23047-3.6562-0.71094-3.9492-0.94531-0.29688-3.2734 2.375-4.9492 2.1836-1.6758-0.19141-3.2148-1.3828-4.2266-2.0312-1.0078-0.64844-1.5938-2.0781-1.8281-1.8594-1.5586-0.39062-7.2852-6.7383-9.4414-7.1758-1.9492-0.89844-3.625 1.6758-4.0898 2.3242-0.46484 0.65234 1.5508 0.99219 1.3047 1.582-0.24609 0.58984-0.55078 1.2227-0.95703 1.3945-0.40625 0.17188-1.0586-0.37109-1.4805-0.37109-0.41797 0 0.40625 1.5195 0.089844 1.7656-0.32031 0.25-1.8281-0.71094-2.0039-0.27734-0.17578 0.43359 0.68359 1.1133 0.52344 1.6719-1.207 0 0.39453 0.70703-1.4805 1.6719-0.34766-0.43359-1.3945-0.027344-1.7422-0.46484z"/>
  </clipPath>
  <linearGradient id="center-w" x1="61.604" x2="71.038" y1="43.647" y2="43.647" gradientTransform="scale(9.3005)" gradientUnits="userSpaceOnUse">
   <stop stop-color="#91550a" offset=".050781"/>
   <stop stop-color="#866943" offset=".20703"/>
   <stop stop-color="#aca399" offset=".36328"/>
   <stop stop-color="#d4d4d4" offset=".54688"/>
   <stop stop-color="#b6a999" offset=".80859"/>
   <stop stop-color="#9a611b" offset=".96484"/>
  </linearGradient>
  <clipPath id="center-bn">
   <path d="m597 425h46v53h-46z"/>
  </clipPath>
  <clipPath id="center-bm">
   <path d="m601.21 436.99c2.3008-2.1133 6.4375-7.6758 10.578-9.5039s10.117-2.8438 14.258-1.4609c4.1367 1.3789 7.9688 7.6719 10.574 9.7461 2.6094 2.0703 4.1016 1.4219 5.0625 2.6797 0.95703 1.2578 1.4531 4.3047 0.6875 4.8711-0.76563 0.57031-4.1016-1.7852-5.2891-1.4609s-1.0352 1.3828-1.8398 3.4102c-0.80469 2.0312-2.043 6.2148-2.9883 8.7734s-2.3672 3.7383-2.6719 6.5781c-0.30859 2.8438 0.80469 8.0117 0.83203 10.48 0.027344 2.4648-0.015625 3.2734-0.67188 4.3164-0.66016 1.0469-2.2852 1.668-3.2812 1.9531-0.99609 0.28516-3.2969-0.51562-4.0938-1.3984-0.79688-0.88281-0.57422-2.3984-0.69141-3.8984-0.11328-1.5 0.13281-4.2461 0-5.1016-0.13281-0.85547-0.6875-0.73047-0.80078-0.039062-0.10938 0.69141 0.15234 2.7227-0.097656 4.2695s-0.41406 4.0117-1.3984 5.0156c-0.98828 1.0039-3.1328 1.4141-4.5117 1.0078-1.3789-0.40625-3.4062-1.2461-3.7695-3.4453-0.35938-2.1992 1.5078-7.3477 1.6133-9.7461 0.10156-2.4023-0.41406-3.1992-0.98828-4.6641-0.57422-1.4609-1.6367-2.5352-2.4609-4.1094-0.82812-1.5742-1.7344-2.9062-2.5039-5.3398-0.76562-2.4375-0.71094-8.1797-2.0977-9.2812-1.2266-0.16016-5.0977 2.7617-6.207 2.6797-1.1133-0.078125-0.92188-2.0703-0.46094-3.1641 0.46094-1.0977 0.92188-1.0586 3.2188-3.168z"/>
  </clipPath>
  <radialGradient id="center-p" cx="620.18" cy="451.41" r="34.441" gradientUnits="userSpaceOnUse">
   <stop stop-color="#b9490d" offset=".11719"/>
   <stop stop-color="#a93107" offset=".27344"/>
   <stop stop-color="#991902" offset=".42969"/>
   <stop stop-color="#a35045" offset=".58594"/>
   <stop stop-color="#bcb4b3" offset=".74219"/>
   <stop stop-color="#a5594f" offset=".89844"/>
  </radialGradient>
  <clipPath id="center-bl">
   <path d="m586 158h58v39h-58z"/>
  </clipPath>
  <clipPath id="center-bj">
   <path d="m603.27 161.74c-0.46094-1.7148-1.4688-3.168-3.7422-3.4297-2.2734-0.25781-7.7227-0.43359-9.9023 1.8711-2.1836 2.3047-3.8164 7.3477-3.1914 11.953 0.62109 4.6094 3.5938 11.988 6.9297 15.695 3.3398 3.707 8.8945 5.3711 13.094 6.5508 4.2031 1.1758 8.8398 1.1953 12.105 0.51953 3.2656-0.67578 6.0703-3.0508 7.4844-4.5742 1.4102-1.5234 0.71484-4.7461 0.98828-4.5742s-0.25781 3.8984 0.66016 5.6133c0.91797 1.7148 2.9336 3.8281 4.8398 4.6758 1.9102 0.85156 4.7891 0.83203 6.6055 0.41797 1.8125-0.41797 3.7773-1.3008 4.2891-2.9102 0.51562-1.6133 0-3.8984-1.2109-6.7578-1.2109-2.8594-4.1445-8.0391-6.0508-10.395-1.9062-2.3555-3.3555-3.8984-5.3906-3.7422-2.0352 0.15625-3.6133 3.7266-6.8242 4.6797-3.207 0.95312-9.3164 1.3164-12.434 1.0391s-4.7305-1.0742-6.2695-2.7031c-1.543-1.6289-2.6055-4.7656-2.9727-7.0664-0.36719-2.3047 1.4492-5.1484 0.99219-6.8633z"/>
  </clipPath>
  <radialGradient id="center-o" cx="586.29" cy="196.74" r="69.098" gradientUnits="userSpaceOnUse">
   <stop stop-color="#b17c20" offset=".0625"/>
   <stop stop-color="#a47931" offset=".21875"/>
   <stop stop-color="#8d744f" offset=".49609"/>
   <stop stop-color="#7e7163" offset=".68359"/>
   <stop stop-color="#a1876b" offset=".875"/>
  </radialGradient>
  <clipPath id="center-bi">
   <path d="m629 189h15v8h-15z"/>
  </clipPath>
  <clipPath id="center-bh">
   <path d="m643.21 191.99c-0.18359-0.81641-1.6875-1.8203-3.4102-2.082-1.7266-0.25781-5.2812 0.22656-6.9336 0.51953-1.6523 0.29687-2.7344 0.58984-2.9727 1.25-0.23828 0.65625 0.53516 1.957 1.543 2.7031 1.0078 0.74219 2.9336 1.6953 4.5117 1.7656 1.5742 0.070312 3.8125-0.74609 4.9492-1.3516s2.4961-1.9922 2.3125-2.8047z"/>
  </clipPath>
  <radialGradient id="center-n" cx="636.54" cy="192.99" r="7.3952" gradientUnits="userSpaceOnUse">
   <stop stop-color="#edcfac" offset=".085938"/>
   <stop stop-color="#ebc18f" offset=".45703"/>
   <stop stop-color="#e8b271" offset=".83203"/>
  </radialGradient>
  <clipPath id="center-bg">
   <path d="m598 152h84v35h-84z"/>
  </clipPath>
  <clipPath id="center-bf">
   <path d="m602.05 159.84c0.67578-1.5898 3.3008-5.3984 4.8398-6.0898 1.5391-0.6875 3.2109 2.1445 4.4023 1.9531 1.1914-0.19141 1.4844-2.9297 2.75-3.1016s3.5781 1.9336 4.8438 2.0703c1.2617 0.13281 1.6836-1.3984 2.75-1.2656 1.0625 0.13281 2.293 1.7422 3.6289 2.0703 1.3398 0.32422 3.1016-0.55859 4.4023-0.11719 1.3008 0.44141 2.2734 2.4688 3.4102 2.7578 1.1367 0.28516 2.3672-1.3594 3.4141-1.0352 1.043 0.32812 1.9258 2.7383 2.8594 2.9883 0.93359 0.25 1.668-1.7227 2.75-1.4922 1.082 0.22656 2.457 2.6992 3.7422 2.8711s2.5664-2.1445 3.9609-1.8398c1.3945 0.30859 3.0273 3.4297 4.4023 3.6758 1.375 0.25 2.8789-2.3555 3.8516-2.1797 0.97266 0.17188 1.0977 3.1758 1.9805 3.2148 0.87891 0.039062 2.4375-2.9023 3.3008-2.9883 0.85938-0.082032 1.1562 2.0703 1.8711 2.4883 0.71484 0.41406 1.5742-2.2305 2.418-2.2891s1.8711 1.9375 2.6406 1.9414c0.77344 0.003907 1.25-1.9883 1.9844-1.9102 0.73047 0.078125 1.6133 2.2539 2.418 2.3867 0.80859 0.13281 1.6328-1.6602 2.4219-1.5859 0.78906 0.074218 1.5586 0.074218 2.3086 0.47266 0.75391 0.39844 2.0195 1.5469 2.2031 1.918 0.18359 0.37109-0.71484 1.2656-1.1016 1.8711-0.38281 0.60547 0.12891 2.2539-0.32812 2.8047-0.46094 0.55469-1.6133 0.60547-2.4219 0.51953-0.80859-0.085937-1.7773-0.70703-2.4219-1.0352-0.64063-0.32422-0.89844-1.0898-1.4297-0.91797s-1.1172 1.7539-1.7617 1.9531c-0.64062 0.19922-1.4102-0.83984-2.0898-0.76562-0.67969 0.070312-1.2656 0.91797-1.9805 1.1992-0.71484 0.27734-1.6484 0.58203-2.3086 0.48438s-1.2656-1.25-1.6523-1.0781-0.23828 1.7773-0.66016 2.1133-1.3203-0.29688-1.8711-0.10547c-0.55078 0.19141-1.0273 1.0078-1.4297 1.2539-0.40234 0.24609-0.60547 0.48047-0.99219 0.22656-0.38281-0.25391-0.91406-1.8516-1.3203-1.7539-0.40234 0.10156-0.32812 1.9023-1.0977 2.3477-0.77344 0.44531-2.5859 0.56641-3.5234 0.32812-0.93359-0.23828-1.5039-1.9531-2.0898-1.7617-0.58594 0.19141-0.625 2.7969-1.4297 2.9102-0.80859 0.11328-2.4219-2.3008-3.4102-2.2266-0.99219 0.078125-1.3398 2.5469-2.5312 2.6875-1.1914 0.13672-3.3008-1.7969-4.6211-1.8555-1.3203-0.058593-2.1289 1.5273-3.3008 1.5117-1.1758-0.019531-2.6055-1.7148-3.7422-1.6211-1.1367 0.097656-1.707 1.7305-3.082 2.1953-1.375 0.46094-4.0898-0.15625-5.1719 0.57422-1.082 0.72656-0.42188 2.9102-1.3203 3.7891-0.89844 0.88281-3.4297 0.76562-4.0703 1.4922-0.64062 0.73047 1.2656 2.0898 0.21875 2.875-1.043 0.78516-5.5195 2.2773-6.4922 1.8359-0.97266-0.44141 1.3047-4.4219 0.66016-4.4805-0.64063-0.058594-3.5 4.1953-4.5117 4.1367-1.0078-0.058594-0.60547-4.1562-1.5391-4.4805-0.93359-0.32422-3.0078 2.7773-4.0703 2.5273-1.0664-0.25-2.1289-2.9688-2.3125-4.0195-0.18359-1.0547 1.543-1.6875 1.2109-2.3008-0.32812-0.60938-3.082 0.019531-3.1914-1.375-0.10938-1.3984 2.4961-5.3633 2.5312-7.0078 0.035156-1.6484-2.0547-1.6875-2.3125-2.8711-0.25391-1.1875 0.074219-3.6797 0.77344-4.2539 0.69531-0.57422 2.9336 1.2656 3.4102 0.80469 0.47656-0.45703-1.4492-1.8555-0.76953-3.4453z"/>
  </clipPath>
  <radialGradient id="center-m" cx="640.03" cy="169.64" r="44.964" gradientUnits="userSpaceOnUse">
   <stop stop-color="#9b1e08" offset=".089844"/>
   <stop stop-color="#a93719" offset=".24609"/>
   <stop stop-color="#b65129" offset=".40234"/>
   <stop stop-color="#c46a3a" offset=".55859"/>
   <stop stop-color="#d2844b" offset=".71484"/>
   <stop stop-color="#e09d5b" offset=".87109"/>
  </radialGradient>
  <clipPath id="center-be">
   <path d="m589 65h42v53h-42z"/>
  </clipPath>
  <clipPath id="center-bd">
   <path d="m602.42 65.879c-0.59766 3.9258-1.1992 7.8477-3.3438 12.34-2.1484 4.4922-8.625 9.4883-9.5273 14.609s0.98828 12.09 4.1211 16.117c3.1289 4.0312 8.4102 7.1797 14.672 8.0625 6.2656 0.87891 14.547-3.9883 18.281-7.3047 3.7305-3.3164 3.6875-8.8984 4.1172-12.594 0.42969-3.6953-1.543-9.5703-1.543-9.5703"/>
  </clipPath>
  <radialGradient id="center-l" cx="630.8" cy="65.878" r="65.919" gradientUnits="userSpaceOnUse">
   <stop stop-color="#fdfbf7" offset=".38281"/>
   <stop stop-color="#f7e2ca" offset=".53906"/>
   <stop stop-color="#f0ca9c" offset=".69531"/>
   <stop stop-color="#e9b16f" offset=".85156"/>
  </radialGradient>
  <clipPath id="center-bc">
   <path d="m598 95h13v13h-13z"/>
  </clipPath>
  <clipPath id="center-bb">
   <path d="m609.11 97.605c-0.91406-1.3594-2.5703-1.9258-4.1172-1.7539-1.543 0.16797-4.2305 1.3438-5.1484 2.7695-0.91406 1.4258-1.2578 4.2773-0.34375 5.7891 0.91406 1.5117 2.9102 3.1445 5.832 3.2734 2.5781-0.039063 4.5234-2 5.1523-3.6797 0.62891-1.6797-0.45703-5.0391-1.375-6.3984z"/>
  </clipPath>
  <radialGradient id="center-k" cx="610.67" cy="95.821" r="16.668" gradientUnits="userSpaceOnUse">
   <stop stop-color="#edd2b2" offset=".25"/>
   <stop stop-color="#d1aa7a" offset=".50391"/>
   <stop stop-color="#b27e3d" offset=".66016"/>
   <stop stop-color="#945200" offset=".81641"/>
   <stop stop-color="#efe6db" offset=".97266"/>
  </radialGradient>
  <clipPath id="center-ba">
   <path d="m602 99h5v5h-5z"/>
  </clipPath>
  <clipPath id="center-ay">
   <path d="m604.74 99.965c-0.74219 0.32422-1.4805 0.64844-1.7266 1.0977-0.24219 0.44922-0.070313 1.2383 0.25781 1.6016 0.33203 0.36719 1.1367 0.69141 1.7266 0.58984 0.58984-0.097656 1.5781-0.80078 1.8086-1.1797 0.23047-0.37891-0.10156-0.73828-0.42969-1.0977"/>
  </clipPath>
  <linearGradient id="center-v" x1="266.41" x2="264.73" y1="43.112" y2="44.797" gradientTransform="scale(2.2708)" gradientUnits="userSpaceOnUse">
   <stop stop-color="#e0a97b" offset=".13672"/>
   <stop stop-color="#cd7232" offset=".29297"/>
   <stop stop-color="#b3570a" offset=".52344"/>
   <stop stop-color="#9e6217" offset=".80859"/>
   <stop stop-color="#faf7f4" offset=".96484"/>
  </linearGradient>
  <clipPath id="center-ax">
   <path d="m279 448h47v61h-47z"/>
  </clipPath>
  <clipPath id="center-aw">
   <path d="m281.1 452.01c-2.9141 2.2188-1.2266 7.1328 1.457 9.8281 2.6836 2.6953 11.668 4.375 14.645 6.3398 2.9766 1.9688 2.8516 3.3828 3.207 5.4688 0.35156 2.0898-1.2773 4.0586-1.0938 7.0547 0.17969 3 1.8203 8.2188 2.1836 10.938 0.36719 2.7227 0.050781 2.8398 0 5.3906-0.046875 2.5508-0.87109 8.3359-0.28906 9.9062 0.58203 1.5742 3.3008 2.0352 3.7891-0.47266 0.48438-2.5117-1.0352-10.422-0.875-14.586 0.15625-4.1602 1.7227-7.25 1.8203-10.383 0.097656-3.1289-1.6406-6.1289-1.2383-8.4023 0.40234-2.2695 2.2812-4.1992 3.6445-5.2305 1.3594-1.0273 2.4023-0.15625 4.5156-0.94922 2.1133-0.79297 6.2188-1.3203 8.1602-3.8047 1.9414-2.4844 6.9922-8.668 3.4961-11.098-3.4961-2.4297-17.242-3.3281-24.48-3.4883-7.2344-0.15625-16.027 1.2695-18.941 3.4883z"/>
  </clipPath>
  <linearGradient id="center-u" x1="36.177" x2="36.177" y1="58.02" y2="65.863" gradientTransform="scale(7.7278)" gradientUnits="userSpaceOnUse">
   <stop stop-color="#f6edd5" offset=".13281"/>
   <stop stop-color="#f0d4b0" offset=".28906"/>
   <stop stop-color="#ebbf93" offset=".44531"/>
   <stop stop-color="#eac88c" offset=".60547"/>
   <stop stop-color="#e9b270" offset=".76172"/>
  </linearGradient>
  <clipPath id="center-av">
   <path d="m303 466h16v30h-16z"/>
  </clipPath>
  <clipPath id="center-au">
   <path d="m317.29 470.36c-1.1875-2.1953-3.8008-3.6055-5.6094-4.043-1.8086-0.4375-4.0898 0.58203-5.2461 1.4258-1.1523 0.84766-2.3555 2.0625-2.6953 3.9648-0.33984 1.9023 0.71875 5.0586 0.65625 7.4492s-0.82422 5.0078-1.0195 6.8945c-0.19531 1.8906-0.30469 3.0273-0.14453 4.4414 0.15625 1.4102 0.15625 3.3008 1.0898 4.0391 0.9375 0.74219 2.4805 1.4414 4.5195 0.39844 2.0391-1.043 6.0586-4.082 7.7227-6.6602 1.6641-2.5742 2.1367-5.8125 2.2578-8.7969 0.12109-2.9844-0.33984-6.9219-1.5312-9.1133z"/>
  </clipPath>
  <radialGradient id="center-j" cx="303.15" cy="466.21" r="33.187" gradientUnits="userSpaceOnUse">
   <stop stop-color="#843d0c" offset=".015625"/>
   <stop stop-color="#944b1b" offset=".17188"/>
   <stop stop-color="#ac6031" offset=".40234"/>
   <stop stop-color="#c07245" offset=".60938"/>
   <stop stop-color="#d8875b" offset=".83984"/>
  </radialGradient>
  <clipPath id="center-at">
   <path d="m285 466h17v30h-17z"/>
  </clipPath>
  <clipPath id="center-as">
   <path d="m287.07 471.11c1.1914-2.1914 4.1055-3.7383 5.9727-4.1992 1.8711-0.46484 4.0938 0.58203 5.2461 1.4258 1.1562 0.84375 2.4062 2.2734 2.6953 3.9648 0.29297 1.6875-0.98047 3.8164-0.94531 6.1797 0.035156 2.3672 0.92188 5.9062 1.1641 8.0078 0.24219 2.0977 0.42578 3.1562 0.29297 4.5938-0.13281 1.4414 0.28906 3.4766-1.0938 4.043-1.3828 0.57031-5.1719 0.41016-7.2109-0.63281-2.043-1.043-3.3633-3.0508-5.0273-5.6289-1.6641-2.5742-2.0781-5.8359-2.2617-8.7969-0.17969-2.957-0.023438-6.7617 1.168-8.957z"/>
  </clipPath>
  <radialGradient id="center-i" cx="-301.54" cy="466.8" r="32.673" gradientTransform="scale(-1,1)" gradientUnits="userSpaceOnUse">
   <stop stop-color="#971604" offset=".042969"/>
   <stop stop-color="#a42b15" offset=".19922"/>
   <stop stop-color="#b24026" offset=".35547"/>
   <stop stop-color="#bf5436" offset=".51172"/>
   <stop stop-color="#cc6947" offset=".66797"/>
   <stop stop-color="#d97e58" offset=".82422"/>
   <stop stop-color="#e69269" offset=".98047"/>
  </radialGradient>
  <clipPath id="center-ar">
   <path d="m337 69h14v34h-14z"/>
  </clipPath>
  <clipPath id="center-aq">
   <path d="m339.67 91.914c0.28516 1.1211-0.058594 10.484 1.7109 10.336 1.7656-0.15234 7.9844-5.7695 8.8945-11.234 0.91406-5.4688-1.2539-19.773-3.4219-21.574-2.1641-1.7969-8.3789 6.4414-9.5781 10.789-1.1992 4.3438 2.0508 13.105 2.3945 15.277 0.34375 2.1719-0.28516-4.7188 0-3.5938z"/>
  </clipPath>
  <linearGradient id="center-t" x1="62.973" x2="58.966" y1="15.27" y2="10.495" gradientTransform="scale(5.83)" gradientUnits="userSpaceOnUse">
   <stop stop-color="#f7efda" offset=".32422"/>
   <stop stop-color="#eedcab" offset=".48047"/>
   <stop stop-color="#eacb90" offset=".63672"/>
   <stop stop-color="#e9bb7a" offset=".79297"/>
   <stop stop-color="#e8ac65" offset=".95312"/>
  </linearGradient>
  <clipPath id="center-ap">
   <path d="m265 64h82v16h-82z"/>
  </clipPath>
  <clipPath id="center-an">
   <path d="m265.77 78.758c0.51172-1.3203 8.7227-7.5859 11.973-9.8984 3.2539-2.3086 3.1367-3.4062 7.5273-3.957 4.3906-0.55078 13.402 0.55078 18.816 0.66016 5.418 0.10938 8.9531 0.10938 13.688 0 4.7305-0.10938 10.547-1.043 14.711-0.66016 4.1602 0.38672 7.8672 2.0352 10.262 2.9688s4.7891 0.93359 4.1055 2.6406c-0.68359 1.7031-1.9375 6.375-8.2109 7.5859-6.2695 1.207-29.422-0.33203-29.422-0.33203l-18.133-0.32812c-5.7578-0.16406-12.316-0.82422-16.422-0.66016-4.1055 0.16406-9.4062 3.2969-8.8945 1.9805z"/>
  </clipPath>
  <linearGradient id="center-ad" x1="52.485" x2="54.771" y1="16.539" y2="10.26" gradientTransform="scale(6.4227)" gradientUnits="userSpaceOnUse">
   <stop stop-color="#a63316" offset=".16016"/>
   <stop stop-color="#bc5c31" offset=".31641"/>
   <stop stop-color="#d3854b" offset=".47266"/>
   <stop stop-color="#e7ab64" offset=".65573"/>
  </linearGradient>
  <clipPath id="center-am">
   <path d="m263 76h82v31h-82z"/>
  </clipPath>
  <clipPath id="center-al">
   <path d="m268.56 78.086c-10.785 3.0664-0.12109 14.738-1.4219 17.492-1.2969 2.7578 0.19922 7.043 1.8359 8.9375 1.6406 1.8945 0.53906 2.5781 8.0039 2.4297 7.4688-0.14453 27.285-3.2539 36.793-3.3047 9.5117-0.050781 15.277 3.5625 20.27 3.0039 4.9883-0.55469 8.043-2.4102 9.6758-6.3477 1.6289-3.9414-1.4414-9.3086 0.12109-17.285-2.5469-3.3555 0.56641-5.0078-11.98-5.8281-12.547-0.82031-52.512-2.1641-63.297 0.90234z"/>
  </clipPath>
  <linearGradient id="center-ac" x1="62.03" x2="62.03" y1="19.319" y2="13.519" gradientTransform="scale(5.5491)" gradientUnits="userSpaceOnUse">
   <stop stop-color="#f9f4e5" offset=".33594"/>
   <stop stop-color="#f4e8c9" offset=".49219"/>
   <stop stop-color="#eedcac" offset=".64844"/>
   <stop stop-color="#f8e19a" offset=".89844"/>
  </linearGradient>
  <clipPath id="center-ak">
   <path d="m272 80h78v14h-78z"/>
  </clipPath>
  <clipPath id="center-aj">
   <path d="m272.87 86.961c0.57422 4.1367 3.1914 5.9375 4.6055 6.1836 1.418 0.24609 2.4414-3.6836 3.8945-4.7109 1.457-1.0273 2.043-0.019532 3.6289 0.70312 1.5859 0.72656 4.2539 3.1445 5.8867 3.6445 1.6328 0.50391 2.7148 0.21094 3.9102-0.63281 1.1953-0.84375 2.3203-4.2578 3.2617-4.4375 0.94141-0.17969 0.78125 2.8008 2.3867 3.3633 1.6016 0.55859 5.6523 0.60938 7.2305-0.007813 1.5781-0.62109 1.1836-3.8203 2.2305-3.7148 1.0469 0.10156 2.1406 3.7422 4.0547 4.3438 1.9141 0.60547 5.8164 0.0625 7.4297-0.72266 1.6094-0.78516 0.8125-3.9375 2.2344-3.9844s4.1641 2.9961 6.3008 3.707c2.1406 0.71094 4.7617 1.0312 6.5234 0.55078 1.7617-0.48438 2.7188-3.1055 4.043-3.4414 1.3242-0.33203 3.8594 2.4297 5.1133 1.5234 1.25-0.90234 4.7188-2.8984 3.2383-4.0742-1.4805-1.1719-7.8164-2.5391-12.121-2.9766-4.3086-0.43359-8.1602 0.36328-13.723 0.36328-5.5586 0-14.031-0.058594-19.641-0.36328-5.6133-0.30078-9.7695-1.5664-14.031-1.4453-4.2617 0.11719-10.051 2.082-10.051 2.082z"/>
  </clipPath>
  <linearGradient id="center-ab" x1="77.698" x2="77.698" y1="22.982" y2="26.592" gradientTransform="scale(3.5119)" gradientUnits="userSpaceOnUse">
   <stop stop-color="#a32d12" offset=".12109"/>
   <stop stop-color="#b9562c" offset=".27734"/>
   <stop stop-color="#cf7e47" offset=".43359"/>
   <stop stop-color="#e4a661" offset=".58984"/>
  </linearGradient>
 </defs>
 <rect x="789.75" y="696" width="960" height="540" fill="#fff"/>
 <g id="bodies">
  <g clip-path="url(#center-cr)">
   <g clip-path="url(#center-cg)" clip-rule="evenodd">
    <path d="m369.31 97.219v254.12h97.891v-254.12z" fill="url(#center-s)"/>
   </g>
  </g>
  <g clip-path="url(#center-bv)">
   <g clip-path="url(#center-bk)" clip-rule="evenodd">
    <path d="m465.95 112.61v237.98h74.059v-237.98z" fill="url(#center-r)"/>
   </g>
  </g>
 </g>
 <g id="kidney" transform="translate(1.4019 32.243)">
  <g clip-path="url(#center-az)">
   <g clip-path="url(#center-ao)" clip-rule="evenodd">
    <path d="m266.88 322.25v44.582h28.855v-44.582z" fill="url(#center-h)"/>
   </g>
  </g>
  <g clip-path="url(#center-ai)">
   <g clip-path="url(#center-ah)" clip-rule="evenodd">
    <path d="m285.23 339.97v43.574h17.746v-43.574z" fill="url(#center-af)"/>
   </g>
  </g>
  <g clip-path="url(#center-ag)">
   <g clip-path="url(#center-cq)" clip-rule="evenodd">
    <path d="m324.25 335.75v43.574h-18.164v-43.574z" fill="url(#center-ae)"/>
   </g>
  </g>
  <g clip-path="url(#center-cp)">
   <g clip-path="url(#center-co)" clip-rule="evenodd">
    <path d="m313.2 318.86v46.188h29v-46.188z" fill="url(#center-g)"/>
   </g>
  </g>
 </g>
 <g id="bladder" transform="translate(-4.9951 29.642)">
  <g clip-path="url(#center-cn)">
   <g clip-path="url(#center-cm)" clip-rule="evenodd">
    <path d="m315.82 389.87v23.227h13.68v-23.227z" fill="url(#center-aa)"/>
   </g>
  </g>
  <g clip-path="url(#center-cl)">
   <g clip-path="url(#center-ck)" clip-rule="evenodd">
    <path d="m287.19 390.31v23.246h-13.465v-23.246z" fill="url(#center-z)"/>
   </g>
  </g>
  <g clip-path="url(#center-cj)">
   <g clip-path="url(#center-ci)" clip-rule="evenodd">
    <path d="m282.01 402.48v40.336h44.66v-40.336z" fill="url(#center-f)"/>
   </g>
  </g>
 </g>
 <g id="lungs">
  <g clip-path="url(#center-ch)">
   <g clip-path="url(#center-cf)" clip-rule="evenodd">
    <path d="m266.02 135.87v64.273h35.145v-64.273z" fill="url(#center-e)"/>
   </g>
  </g>
  <g clip-path="url(#center-ce)">
   <g clip-path="url(#center-cd)" clip-rule="evenodd">
    <path d="m309.18 135.26v63.969h34.48v-63.969z" fill="url(#center-d)"/>
   </g>
  </g>
  <g clip-path="url(#center-cc)">
   <g clip-path="url(#center-cb)" clip-rule="evenodd">
    <path d="m288.5 125.71v45.336h37.293v-45.336z" fill="url(#center-y)"/>
   </g>
  </g>
 </g>
 <g id="stomach" transform="translate(-2.1028 27.336)" clip-path="url(#center-ca)">
  <g clip-path="url(#center-bz)" clip-rule="evenodd">
   <path d="m267.74 234.48v53.793h56.844v-53.793z" fill="url(#center-c)"/>
  </g>
 </g>
 <g id="gut" transform="translate(-10.5)">
  <g clip-path="url(#center-by)">
   <g clip-path="url(#center-bx)" clip-rule="evenodd">
    <path d="m589.1 252.31v57.211h63.355v-57.211z" fill="url(#center-b)"/>
   </g>
  </g>
  <g clip-path="url(#center-bw)">
   <g clip-path="url(#center-bu)" clip-rule="evenodd">
    <path d="m576.24 240v99.258h84.156v-99.258z" fill="url(#center-x)"/>
   </g>
  </g>
 </g>
 <g id="ovary" transform="translate(-10.5,25.5)">
  <g clip-path="url(#center-bt)">
   <g clip-path="url(#center-bs)" clip-rule="evenodd">
    <path d="m640.25 374.39v15.449h17.945v-15.449z" fill="url(#center-a)"/>
   </g>
  </g>
  <g clip-path="url(#center-br)">
   <g clip-path="url(#center-bq)" clip-rule="evenodd">
    <path d="m576.18 372.76v16.656h20.441v-16.656z" fill="url(#center-q)"/>
   </g>
  </g>
  <g clip-path="url(#center-bp)">
   <g clip-path="url(#center-bo)" clip-rule="evenodd">
    <path d="m572.95 362.95v43.215h87.742v-43.215z" fill="url(#center-w)"/>
   </g>
  </g>
 </g>
 <g id="uterus" transform="translate(-1.5,57)">
  <g clip-path="url(#center-bn)">
   <g clip-path="url(#center-bm)" clip-rule="evenodd">
    <path d="m597.34 424.64v53.016h45.797v-53.016z" fill="url(#center-p)"/>
   </g>
  </g>
  <path d="m598.92 439.98c2.0039-1.2344 7.7188-4.0977 11.09-4.7695 3.375-0.66797 6.1016 0.78125 9.1523 0.74218 3.0508-0.043 6.375-1.1914 9.1524-0.98828 2.7812 0.20703 5.2891 1.0977 7.5234 2.2188 2.2383 1.125 5.2617 2.5898 6.2812 3.2891 1.0234 0.69921 0.75 0.98437-0.15234 0.90234-0.90625-0.082-3.6211-1.1641-5.2734-1.3945-1.6562-0.23438-3.2852-0.66016-4.6562 0-1.3672 0.65625-2.7383 2.2852-3.5664 3.9453-0.82813 1.6562-0.86719 4.1914-1.3945 6-0.53125 1.8086-1.1914 2.7266-1.7852 4.8477-0.59375 2.125-1.5117 5.6289-1.7852 7.8906-0.26953 2.2617-0.8789 1.8359-1.1641 3.7812-0.28125 1.9453-0.375 7.4258-0.54297 7.8906-0.16797 0.46484-1.4219 0.89062-1.6289-0.41016-0.20703-1.3047 0.50782-6.1953 0.39063-7.3984-0.11719-1.207-1.0469-1.8359-1.707-3.9453-0.66016-2.1094-1.5274-6.0156-2.25-8.7109-0.72266-2.6992-1.3164-5.2734-2.0938-7.4805-0.77735-2.207-0.50391-3.5469-2.5586-5.7539-1.4375-1.4648-3.6836-2.2031-5.7422-2.0547-2.0547 0.15234-5.543 2.5195-6.5898 2.9609-1.0469 0.4375-1.3594 1.1758-1.6289 1.0664-0.27344-0.10937-1.0742-1.3984 0.92968-2.6289z" fill="#fff0ca" fill-rule="evenodd"/>
 </g>
 <g id="breast" transform="translate(16.43 -29.439)">
  <g clip-path="url(#center-be)">
   <g clip-path="url(#center-bd)" clip-rule="evenodd">
    <path d="m588.64 65.879v52.008h42.523v-52.008z" fill="url(#center-l)"/>
   </g>
  </g>
  <g clip-path="url(#center-bc)">
   <g clip-path="url(#center-bb)" clip-rule="evenodd">
    <path d="m598.59 95.68v12.004h12.527v-12.004z" fill="url(#center-k)"/>
   </g>
  </g>
  <g clip-path="url(#center-ba)">
   <g clip-path="url(#center-ay)" clip-rule="evenodd">
    <path d="m602.77 99.965v3.3906h4.2656v-3.3906z" fill="url(#center-v)"/>
   </g>
  </g>
 </g>
 <g id="prostate" transform="translate(-8.0975 33.247)">
  <g clip-path="url(#center-ax)">
   <g clip-path="url(#center-aw)" clip-rule="evenodd">
    <path d="m278.18 448.37v60.605h49.832v-60.605z" fill="url(#center-u)"/>
   </g>
  </g>
  <g clip-path="url(#center-av)">
   <g clip-path="url(#center-au)" clip-rule="evenodd">
    <path d="m303.07 465.88v30.094h15.871v-30.094z" fill="url(#center-j)"/>
   </g>
  </g>
  <g clip-path="url(#center-at)">
   <g clip-path="url(#center-as)" clip-rule="evenodd">
    <path d="m301.79 466.45v29.25h-16.062v-29.25z" fill="url(#center-i)"/>
   </g>
  </g>
 </g>
 <g id="pancreas" transform="translate(-16.072 -19.15)">
  <g clip-path="url(#center-bl)">
   <g clip-path="url(#center-bj)" clip-rule="evenodd">
    <path d="m585.8 157.88v39.016h58.137v-39.016z" fill="url(#center-o)"/>
   </g>
  </g>
  <g clip-path="url(#center-bi)">
   <g clip-path="url(#center-bh)" clip-rule="evenodd">
    <path d="m629.65 189.65v6.5664h13.738v-6.5664z" fill="url(#center-n)"/>
   </g>
  </g>
  <g clip-path="url(#center-bg)">
   <g clip-path="url(#center-bf)" clip-rule="evenodd">
    <path d="m598.31 152.43v34.617h83.48v-34.617z" fill="url(#center-m)"/>
   </g>
  </g>
 </g>
 <g id="skin" transform="translate(4.2056 -22.43)">
  <g clip-path="url(#center-am)">
   <g clip-path="url(#center-al)" clip-rule="evenodd">
    <path d="m257.78 75.02v32.184h87.57v-32.184z" fill="url(#center-ac)"/>
   </g>
  </g>
  <g clip-path="url(#center-ar)">
   <g clip-path="url(#center-aq)" clip-rule="evenodd">
    <path d="m336.08 67.645v34.754h15.113v-34.754z" fill="url(#center-t)"/>
   </g>
  </g>
  <g clip-path="url(#center-ap)">
   <g clip-path="url(#center-an)" clip-rule="evenodd">
    <path d="m265.26 64.352v15.723h82.277v-15.723z" fill="url(#center-ad)"/>
   </g>
  </g>
  <g clip-path="url(#center-ak)">
   <g clip-path="url(#center-aj)" clip-rule="evenodd">
    <path d="m272.87 80.711v12.68h77.453v-12.68z" fill="url(#center-ab)"/>
   </g>
  </g>
  <g fill="none" stroke="#7d5e00" stroke-miterlimit="800">
   <g stroke-width="381">
    <path transform="scale(.0019685)" d="m146832 36155c61.51-444.5 123.03-889 246.06-1373.2 123.03-484.19 273.85-1033.9 494.11-1531.9 220.27-498.08 521.89-974.33 823.52-1452.6"/>
    <path transform="scale(.0019685)" d="m143183 36824c61.52-442.52 123.03-887.02 246.07-1371.2 123.03-484.19 273.84-1035.8 494.11-1531.9 220.26-498.08 521.89-976.31 823.51-1452.6"/>
    <path transform="scale(.0019685)" d="m161084 35485c61.52-444.5 123.03-887.02 246.06-1371.2 123.03-484.19 273.85-1035.8 494.11-1533.9 220.27-498.08 521.89-974.33 823.52-1452.6"/>
    <path transform="scale(.0019685)" d="m164211 36322c61.52-444.5 123.04-887.02 248.05-1371.2 123.03-484.19 273.85-1035.8 492.13-1533.9 220.26-496.09 521.89-974.33 823.51-1452.6"/>
    <path transform="scale(.0019685)" d="m153870 35473c61.51-442.52 123.03-887.02 246.06-1371.2 125.02-484.19 275.83-1035.8 494.11-1533.9 220.26-496.09 521.89-974.33 823.51-1450.6"/>
    <path transform="scale(.0019685)" d="m152015 36981c61.51-442.52 123.03-887.02 246.06-1371.2 123.03-484.19 273.84-1035.8 494.11-1533.9 220.26-496.09 521.89-974.33 823.51-1450.6"/>
    <path transform="scale(.0019685)" d="m148320 37036c61.52-442.52 123.03-887.02 248.05-1371.2 123.03-484.19 273.84-1035.8 494.11-1531.9 218.28-498.08 519.9-976.31 821.53-1452.6"/>
    <path transform="scale(.0019685)" d="m167047 35473c63.5-442.52 125.01-887.02 248.04-1371.2 123.03-484.19 273.85-1035.8 494.11-1533.9 218.28-496.09 521.89-974.33 823.52-1450.6"/>
    <path transform="scale(.0019685)" d="m169394 37149c61.52-444.5 123.03-889 246.06-1373.2 125.02-484.19 275.83-1033.9 494.11-1531.9 220.27-498.08 521.89-974.33 823.52-1452.6"/>
    <path transform="scale(.0019685)" d="m159835 36814c61.51-444.5 123.03-889 246.06-1371.2 123.03-484.19 275.83-1035.8 494.11-1533.9 220.27-498.08 521.89-974.33 823.52-1452.6"/>
    <path transform="scale(.0019685)" d="m162891 36139c61.51-444.5 125.01-889 248.04-1371.2 123.03-484.19 273.85-1035.8 494.11-1533.9 218.28-498.08 519.91-974.33 823.52-1452.6"/>
    <path transform="scale(.0019685)" d="m157416 37461c61.52-442.52 125.02-887.02 248.05-1371.2 123.03-484.19 273.85-1033.9 494.11-1531.9 218.28-498.08 519.91-974.33 823.52-1452.6"/>
   </g>
   <path d="m339.18 75.684c0.11734-1.4102 0.23468-2.8204 0.46935-4.3565 0.23468-1.5298 0.52235-3.28 0.9425-4.8601s0.99548-3.0911 1.5708-4.6083" stroke-width=".93725"/>
   <g stroke-width="381">
    <path transform="scale(.0019685)" d="m156226 36981c61.52-442.52 125.02-887.02 248.05-1371.2 123.03-484.19 273.84-1035.8 494.11-1533.9 218.28-496.09 519.9-974.33 823.51-1450.6"/>
    <path transform="scale(.0019685)" d="m150054 37810c61.52-442.52 123.04-887.02 246.07-1371.2 123.03-484.19 273.84-1035.8 494.11-1531.9 220.26-498.08 521.89-976.31 823.51-1452.6"/>
    <path transform="scale(.0019685)" d="m164608 37810c61.52-444.5 123.03-887.02 246.06-1371.2 123.03-484.19 273.85-1035.8 494.11-1533.9 220.27-498.08 521.89-974.33 823.52-1452.6"/>
    <path transform="scale(.0019685)" d="m158688 37036c63.5-442.52 125.01-887.02 248.05-1371.2 123.03-484.19 273.84-1035.8 494.11-1531.9 218.28-498.08 521.89-976.31 823.51-1452.6"/>
    <path transform="scale(.0019685)" d="m154682 37159c61.51-442.52 123.03-887.02 246.06-1371.2 123.03-484.19 273.84-1035.8 494.11-1531.9 220.26-498.08 521.89-976.31 823.51-1452.6"/>
    <path transform="scale(.0019685)" d="m144240 38261c61.51-442.52 123.03-887.02 246.06-1371.2 125.01-484.19 275.83-1035.8 494.11-1531.9 220.26-498.08 521.89-976.31 823.51-1452.6"/>
    <path transform="scale(.0019685)" d="m145861 36763c61.52-444.5 123.03-889 246.06-1371.2 123.03-484.19 273.85-1035.8 494.11-1533.9 220.27-498.08 521.89-974.33 823.52-1452.6"/>
   </g>
  </g>
  <path transform="scale(.0019685)" d="m144177 42239c-121.05-557.61 275.82-1109.3 1020-1420.8 746.13-311.55 1710.5-329.41 2484.4-45.64 273.85-323.45 773.91-547.69 1351.4-603.25 577.45-55.563 1162.8 63.5 1577.6 321.47 234.16-293.69 692.55-492.12 1212.4-521.89 519.91-31.75 1029.9 107.16 1347.4 369.09 420.69-311.55 1091.4-442.52 1720.5-337.34 631.03 107.16 1105.3 430.61 1220.4 831.45 517.92 89.297 946.54 313.53 1180.7 617.14 232.17 303.61 244.08 654.84 33.73 964.41 508 414.73 627.07 968.38 313.53 1454.5-315.51 484.19-1018 829.47-1843.5 902.89-5.95 456.41-404.81 873.12-1039.8 1093.4-636.99 218.28-1412.9 204.39-2030-35.719-261.93 545.7-1000.1 946.55-1895.1 1029.9-896.93 83.343-1787.9-164.7-2292-638.97-617.14 234.16-1357.3 301.62-2053.8 186.53-696.51-113.11-1289.8-398.86-1647-793.75-631.03 47.625-1240.2-158.75-1526-511.97-285.75-355.2-188.52-783.83 246.06-1073.5-563.56-208.36-849.31-621.11-712.39-1022 138.91-402.83 670.72-702.47 1317.6-744.14z" fill="#7d4502" fill-rule="evenodd" stroke="#7d4502" stroke-miterlimit="800" stroke-opacity=".35686" stroke-width="508"/>
  <path transform="scale(.0019685)" d="m143558 44027c263.92 97.234 571.5 142.88 877.09 127m402.83 1458.5c130.97-7.937 259.96-29.765 382.99-59.531m3317.9 666.75c-93.26-87.312-170.65-180.58-232.17-277.81m4419.2-113.11c49.61-99.219 79.38-202.41 93.27-305.59m2976.6-752.08c5.95-484.19-432.59-928.69-1129.1-1141m2659.1-1216.4c-113.11 164.7-283.76 311.55-502.04 428.62m-712.39-2010.2c19.84 67.469 29.76 134.94 27.78 202.41m-2968.6-696.52c-105.17 77.39-192.48 164.7-257.97 257.97m-2301.9-105.17c-55.56 69.453-97.24 144.86-123.03 222.25m-2805.9 59.531c162.72 61.515 313.53 132.95 450.45 216.3m-3954.8 1250.2c15.87 77.391 41.67 152.8 77.39 226.22" fill="none" stroke="#7d4502" stroke-miterlimit="800" stroke-opacity=".35686" stroke-width="508"/>
 </g>
 <g fill="none" stroke-miterlimit="800" stroke="#3d3d3d">
   <path id="path_gut"           d="m505.15 214.35c6.1483 0.83839 12.297 1.6768 16.398 8.7591 4.0977 7.0824 0.98554 27.031 8.1989 33.732 7.21 6.7042 21.139 6.5957 35.068 6.4873"/>
   <path id="path_ovarus"        d="m507.13 226.99c5.5815 3.6098 11.159 7.2196 14.753 31.513 3.5938 24.289 0.18898 91.257 6.8063 114.24 6.6208 22.979 19.764 23.305 32.908 23.636"/>
   <path id="path_pancreas"      d="m508.66 200.45c1.8899-11.007 3.7799-22.013 13.48-30.091 9.7005-8.0859 27.215-13.234 44.726-18.391"/>
   <path id="path_breast"        d="m600.35 72.598c-27.296-0.18204-54.596-0.37015-69.237 15.522-14.641 15.892-16.622 47.865-18.603 79.831"/>
   <path id="path_uterus"        d="m501.65 226.11c0.17764 90.402 0.35142 180.8 15.539 226.32 15.188 45.522 45.386 46.16 75.585 46.798"/>
   <path id="path_prostate"      d="m317.58 514.08c25.447 0.22623 50.898 0.44804 67.924-46.49 17.025-46.943 34.228-235.15 34.228-235.15"/>
   <path id="path_bladder"       d="m319.33 470.84c15.094-0.99594 30.182-1.987 46.569-42.38 16.382-40.393 34.057-120.18 51.737-199.97"/>
   <path id="path_kidney"        d="m347.98 371.86c7.1418-4.1439 14.284-8.2829 24.993-33.716 10.709-25.433 39.269-118.89 39.269-118.89"/>
   <path id="path_stomach_lower" d="m324.01 292.2c11.916 0.21513 23.828 0.425 39.476-16.434 15.644-16.854 35.02-50.781 54.396-84.703"/>
   <path id="path_stomach_upper" d="m291.67 262.01c17.867 0.60672 35.733 1.208 56.767-13.829 21.034-15.032 45.239-45.707 69.44-76.383"/>
   <path id="path_skin"          d="m324.59 81.824c-0.36282 3.2976-0.72866 6.5952 6.558 7.7746 7.2836 1.1794 27.317-9.7813 37.153-0.70998 9.8355 9.0713 15.843 32.108 21.854 55.138" stroke="#3d3d3d"/>
   <path id="path_lungs"         d="m340.2335715 154.3520535 66.3561665 1.4140522" stroke="#3e3e3e"/>
 </g>
</svg>
