<svg width="84.16" height="99.26" version="1.2" viewBox="565.74 240 84.16 99.26" xmlns="http://www.w3.org/2000/svg"><g clip-path="url(#a)" transform="translate(-10.5)"><g clip-path="url(#b)" clip-rule="evenodd"><path d="M589.1 252.31v57.21h63.35v-57.21z" fill="url(#c)"/></g></g><g clip-path="url(#d)" transform="translate(-10.5)"><g clip-path="url(#e)" clip-rule="evenodd"><path d="M576.24 240v99.26h84.16V240z" fill="url(#f)"/></g></g><clipPath id="a"><path d="M589 255h62v54h-62z"/></clipPath><clipPath id="b"><path d="M599.53 300.64c2.41 1.68 4.2-.25 8.87 1 4.67 1.26 12.3 7.88 19.15 6.54 6.85-1.34 18.99-6.2 21.95-14.57 2.96-8.38 1.16-30.08-4.2-35.69-5.38-5.61-20.09 2.1-28.02 2-7.95-.07-15.03-4.76-19.62-2.5-4.6 2.26-7.31 10.38-7.94 16.08-.62 5.7 2.88 13.49 4.2 18.1 1.33 4.6 3.2 7.36 5.6 9.04z"/></clipPath><radialGradient id="c" cx="620.28" cy="282.12" r="40.34" gradientUnits="userSpaceOnUse"><stop stop-color="#f9df8e" offset=".5"/><stop stop-color="#e7c661" offset=".65"/><stop stop-color="#d5ad35" offset=".81"/><stop stop-color="#c29509" offset=".96"/></radialGradient><clipPath id="d"><path d="M576 240h84v99h-84z"/></clipPath><clipPath id="e"><path d="M596.67 293.18c.6-1.55 3.7-.59 4.34-1.48.64-.9.25-3.06-.48-3.88-.72-.82-3.22-.32-3.86-1.07-.64-.76.3-2.36 0-3.47-.7-2.53-2.85-.1-2.85-1.7 0-1.61 3.15-1.83 2.85-4.48-.3-2.64-4.15-1.62-4.65-2.78.36 1 1.52.35 1.62-4.18.1-4.54-3.49-6.4-2.98-5.82.5 2.12 3.64-4.43 6.01-4.37 2.36.07 5.66 4.77 8.18 4.77 2.52 0 6.34-4.57 6.96-4.77.62-.2 1.7 4.41 4.54 4.3 2.83-.13 2.64-3.7 4.03-4.3 1.4-.59 1.24 2.2 4.37.73 3.02-1.13 3.26-4.23 4.17-4.12-.38-.38.27 3.67 3.4 4.53 3.12.87 2.48-4.05 3.7-4.35 1.24-.3.57 2.74 3.66 2.57 2.67.53 3.47-1.84 3.92-1.5.44.34-1.61.55-1.22 3.53.82 3.57 2.83 1.8 2.26 3.58-.58 1.79-1.81.43-2.06 4.85-.24 4.43 2.36 3.67 2.53 5.19.17 1.52-1.3 2.77-1.51 3.93s2.27 3.1 3.2 3.25c-1.35 1.34-3.78.6-2.2 4.07 1.6 3.48 2.78.57 3.32 1.72.55 1.16-3.3 1.8-3.5 2.81-.94 3.64 3.5 4.73 2.59 5.26-.91.54-3-1.17-4.6.32-1.6 1.5.19 4.4-.47 5.06-.65.67-2.35-1.9-3.55-2.15-1.2-.25-2.24-.87-3.44-.3-1.19.56-3.77 4.02-3.74 3.7.24-.34-4.28-3.59-5.78-3.7-1.5-.1-2.14 4.29-3.19 3.04-1.05-1.25-1.56-3.93-3.14-5.04-1.59-1.1-4.56-2.15-6.36-1.61-1.8.54-2.32 4.32-2.66 6.32-.34 2 .55 2.64.63 5.67.09 3.04-2.04 7.64-1.93 11.05.11 3.42 2.36 6.42 2.6 9.45.26 3.03-1.73 7.06-1.12 8.75.62 1.69 1.4 1.48 2.56 1.63 1.16.15 3.46 1.06 4.42-.75s.64-7.6 1.36-10.13c.71-2.52 2.52-2.88 2.93-5 .4-2.11.05-6.99.87-7.7.83-.7 2.73 3.5 4.08 3.45 1.36-.05 2.7-.34 4.06-3.75 2.24 2.35 5.17 3.42 7.68 2.92 2.52-.5 6.86-1.1 7.4-5.92 2.58 1.93 6.53-.23 7.86-1.83s-1.07-5.36.1-7.77c.43-.74 6.35-.3 5.67-5.62-.68-5.32-2.85-3.4-3.94-4.77-1.09-1.37.9-.94 1.61-1.77.71-.83 2.53-2.31 2.67-3.23.15-.92.8-.52-1.27-3.35-.68-1.39-2.92.1-2.78-1.4-.1-.85 2.92-.5 2.67-3.5-.86-3.29-3-2.53-2.9-3.59.09-1.05 3.34-1.27 3.39-4.06.04-2.8-2.63-2.97-2.49-4.1.04-.76 2.58-4.8 2.38-7.09-.2-2.29-3.28-5.37-3.57-6.65.9-2.47 2.87-4.28 1.2-7.1-1.69-2.8-6.3-3.75-7.4.29-2.2-.99-.07-5.77-4.65-4.86s-3.25 2.32-4.11 3.87c-1.52.71-4.54-1.5-6.05-.9-1.51.59-1.88 3.71-3.02 4.45-1.14.74-.87-3.21-3.83-3.25-2.64.2-1.7 4.08-2.93 3.75-1.24-.33-2.86-2.57-4.5-2.5-1.66.07-3.82 2.87-5.4 2.9-1.58.05-2.75-2.7-4.07-2.65-1.31.06-2.77 4.05-3.82 3-1.06-1.04-2.6-5.68-4.32-6.17-1.73-.5-5.2 3.29-6.05 3.17-.63.12-2.83-4.57-6.47-3.77-3.63.8-3.27 6.06-3.68 6.38-1.6 1.52-4.32-1.97-6.01 1.17-1.69 3.14 1.23 4.68 1.06 6.2-.17 1.51-3.58 2.27-3.25 5.78.32 3.52 4.58 4.59 4.54 5.97-.03 1.39-2.07-.32-4.75 2.34-1.27 2.3-.51 5.38.1 6.8.6 1.43 3.19 1.03 3.52 1.76.34.73-1.42.92-1.5 2.61-.08 1.7.86 5.76 1.9 7.07 1.05 1.31 4.59 1.5 4.37.79-.21-.71-3.06 4.95-2.44 7.14.62 2.19 3.1 4.42 4.96 5.88 1.86 1.47 5.96-.75 7.34-2.34 1.37-1.59 3.68-1.64.91-7.18z"/></clipPath><linearGradient id="f" x1="63.26" x2="72.5" y1="37.16" y2="37.16" gradientTransform="scale(9.1095)" gradientUnits="userSpaceOnUse"><stop stop-color="#8d7a4b" offset=".38"/><stop stop-color="#b08915" offset=".54"/><stop stop-color="#a74900" offset=".69"/><stop stop-color="#932800" offset=".85"/></linearGradient></svg>