<svg width="75.32" height="64.68" version="1.2" viewBox="268.28 351.1 75.32 64.68" xmlns="http://www.w3.org/2000/svg"><g clip-path="url(#a)" transform="translate(1.4 32.24)"><g clip-path="url(#b)" clip-rule="evenodd"><path d="M266.88 322.25v44.58h28.86v-44.58z" fill="url(#c)"/></g></g><g clip-path="url(#d)" transform="translate(1.4 32.24)"><g clip-path="url(#e)" clip-rule="evenodd"><path d="M285.23 339.97v43.57h17.75v-43.57z" fill="url(#f)"/></g></g><g clip-path="url(#g)" transform="translate(1.4 32.24)"><g clip-path="url(#h)" clip-rule="evenodd"><path d="M324.25 335.75v43.57h-18.16v-43.57z" fill="url(#i)"/></g></g><g clip-path="url(#j)" transform="translate(1.4 32.24)"><g clip-path="url(#k)" clip-rule="evenodd"><path d="M313.2 318.86v46.19h29v-46.19z" fill="url(#l)"/></g></g><clipPath id="a"><path d="M267 322h29v45h-29z"/></clipPath><clipPath id="b"><path d="M286.95 366.46c3.12-.37 6.48-2.45 7.63-4.4 1.15-1.96.03-5.24-.75-7.33-.77-2.09-3.34-3.61-3.88-5.18-.54-1.57.87-3 .65-4.22-.23-1.22-2.45-1.55-2-3.07.45-1.5 3.95-3.68 4.7-6 .74-2.33 1.07-5.63-.21-7.93s-4.47-5.64-7.48-5.86c-3.02-.22-7.64 1.83-10.64 4.52-3 2.69-6.55 7.67-7.32 11.61-.77 3.94-.61 12.28.76 16.56 1.38 4.28 4.38 7.22 7.47 9.1s7.95 2.57 11.07 2.2z"/></clipPath><radialGradient id="c" cx="281.13" cy="344.5" r="26.09" gradientUnits="userSpaceOnUse"><stop stop-color="#efa97b" offset=".12"/><stop stop-color="#df8e65" offset=".27"/><stop stop-color="#cf734f" offset=".43"/><stop stop-color="#bf5839" offset=".59"/><stop stop-color="#ae3d23" offset=".74"/><stop stop-color="#9e220d" offset=".9"/></radialGradient><clipPath id="d"><path d="M285 340h18v42h-18z"/></clipPath><clipPath id="e"><path d="M290.4 341.74c2.12 1.42 6.4 4.13 8.3 7.56 1.9 3.44 2.4 7.82 3.08 13.05.68 5.23 1.19 15.46.97 18.33-.23 2.87-1.58-1.3-2.32-1.13-.74.16-1.8 3.05-2.12 2.08s.29-4.1.2-7.94c-.1-3.85-.23-11.91-.78-15.13-.54-3.21-1.67-3.53-2.5-4.16-.84-.62-1.04 1.61-2.51.38-1.48-1.23-5.25-5.41-6.37-7.75s-1.13-5.42-.39-6.24c.74-.82 2.32-.47 4.44.95z"/></clipPath><linearGradient id="f" x1="68.48" x2="72.74" y1="91.67" y2="91.67" gradientTransform="scale(4.1653)" gradientUnits="userSpaceOnUse"><stop stop-color="#fae090" offset=".49"/><stop stop-color="#e7c763" offset=".65"/><stop stop-color="#d5ad35" offset=".8"/><stop stop-color="#c29408" offset=".96"/></linearGradient><clipPath id="g"><path d="M306 336h18v42h-18z"/></clipPath><clipPath id="h"><path d="M315.76 337.89c-2.12 1.42-3.98 3.81-5.4 7.18s-2.41 7.82-3.08 13.05c-.68 5.23-1.2 15.47-.97 18.33.22 2.87 1.58-1.29 2.31-1.13.75.16 1.8 3.05 2.13 2.08.32-.98-.3-4.1-.2-7.94.1-3.84.23-11.72.78-15.12s.96-4.16 2.5-5.3 5.27-.47 6.75-1.5c1.48-1.05 1-2.4 2.13-4.74 1.12-2.33 1.54-5.41.38-6.23-1.15-.82-5.2-.1-7.33 1.32z"/></clipPath><linearGradient id="i" x1="-77.45" x2="-73.11" y1="90.2" y2="90.2" gradientTransform="scale(-4.1863 4.1863)" gradientUnits="userSpaceOnUse"><stop stop-color="#f1d47b" offset=".57"/><stop stop-color="#debb4d" offset=".73"/><stop stop-color="#cca11f" offset=".88"/></linearGradient><clipPath id="j"><path d="M313 319h29v46h-29z"/></clipPath><clipPath id="k"><path d="M313.94 330.36c-.2-1.64-.74-4.03.2-5.86.93-1.83 2.7-4.57 5.4-5.1 2.7-.54 7.61.28 10.8 1.89 3.18 1.6 6.4 3.93 8.3 7.75 1.89 3.8 3.56 10.02 3.08 15.12s-3.09 12.04-5.98 15.5c-2.9 3.47-7.98 5.39-11.38 5.3-3.41-.1-7.43-3.4-9.07-5.87-1.64-2.45-1.16-6.77-.77-8.88.38-2.11 2.15-3.06 3.08-3.78.94-.73 2.22.06 2.51-.57.3-.63-.83-2.05-.77-3.21.06-1.17 1.83-2.4 1.16-3.78-.68-1.39-4.15-3.12-5.2-4.54-1.07-1.42-1.17-2.33-1.36-3.97z"/></clipPath><radialGradient id="l" cx="327.7" cy="342.1" r="26.86" gradientUnits="userSpaceOnUse"><stop stop-color="#f1ab7d" offset=".11"/><stop stop-color="#e09067" offset=".26"/><stop stop-color="#d07551" offset=".42"/><stop stop-color="#c05a3b" offset=".57"/><stop stop-color="#af3f25" offset=".73"/><stop stop-color="#9f240f" offset=".89"/></radialGradient></svg>