<svg width="77.64" height="74.43" version="1.2" viewBox="266.02 125.71 77.64 74.43" xmlns="http://www.w3.org/2000/svg"><g clip-path="url(#a)"><g clip-path="url(#b)" clip-rule="evenodd"><path d="M266.02 135.87v64.27h35.15v-64.27z" fill="url(#c)"/></g></g><g clip-path="url(#d)"><g clip-path="url(#e)" clip-rule="evenodd"><path d="M309.18 135.26v63.97h34.48v-63.97z" fill="url(#f)"/></g></g><g clip-path="url(#g)"><g clip-path="url(#h)" clip-rule="evenodd"><path d="M288.5 125.71v45.34h37.3V125.7z" fill="url(#i)"/></g></g><clipPath id="a"><path d="M266 136h35v64h-35z"/></clipPath><clipPath id="b"><path d="M296.6 153.5c.27-2.66 3.4-8.42 2.58-11.26-.82-2.83-3.83-6.37-7.5-5.76-3.68.61-10.68 4.2-14.55 9.43-3.87 5.23-6.84 14.53-8.68 21.99-1.83 7.46-2.42 17.45-2.35 22.77.08 5.33.08 8.86 2.82 9.17 2.74.3 9.5-5.98 13.6-7.33 4.11-1.35 8.1.87 11.03-.78 2.93-1.66 5.51-5.29 6.56-9.17 1.06-3.88.2-10.08-.23-14.14-.43-4.05-1.95-7.76-2.34-10.2-.4-2.45-1.22-2.06-.94-4.72z"/></clipPath><radialGradient id="c" cx="266.1" cy="136.41" r="72.22" gradientUnits="userSpaceOnUse"><stop stop-color="#9e2512" offset=".06"/><stop stop-color="#bb5943" offset=".21"/><stop stop-color="#d78e74" offset=".37"/><stop stop-color="#f3c3a5" offset=".53"/><stop stop-color="#d99278" offset=".68"/><stop stop-color="#b6523c" offset=".84"/><stop stop-color="#941100" offset="1"/></radialGradient><clipPath id="d"><path d="M309 136h35v63h-35z"/></clipPath><clipPath id="e"><path d="M311.14 165.02c-.4 3.88-1.95 10.82-1.64 14.4s1.33 5.28 3.52 7.07 6.92 2.66 9.62 3.66c2.7 1 4.06.92 6.56 2.36s6.06 6.72 8.45 6.28c2.38-.43 5.7-2.61 5.86-8.9.16-6.28-1.44-20.33-4.92-28.8s-11.5-18.15-15.95-21.99c-4.46-3.84-8.68-2.44-10.8-1.05-2.1 1.4-1.87 6.42-1.87 9.43 0 3 1.64 5.76 1.88 8.64.23 2.88-.32 5.02-.71 8.9z"/></clipPath><radialGradient id="f" cx="309.46" cy="136.61" r="70.92" gradientUnits="userSpaceOnUse"><stop stop-color="#f5be98" offset=".22"/><stop stop-color="#f0bda0" offset=".38"/><stop stop-color="#d89177" offset=".54"/><stop stop-color="#c1654e" offset=".7"/><stop stop-color="#a93a26" offset=".85"/></radialGradient><clipPath id="g"><path d="M288 125h38v46h-38z"/></clipPath><clipPath id="h"><path d="M300.82 130.2c-.59 3.88 1.37 15.01.23 19.11-1.13 4.1-5.27 5.02-7.03 5.5-1.76.48-2.7-2.92-3.52-2.62-.82.3-2 3.23-1.4 4.45.58 1.22 4.68 1.18 4.92 2.88.23 1.7-3.4 5.54-3.52 7.33-.12 1.8 1.64 4.2 2.82 3.4 1.17-.78 2.65-6.1 4.22-8.1 1.56-2.02 3.08-3.33 5.16-3.93 2.07-.62 5.04-.18 7.27.26 2.23.43 5.08.6 6.1 2.35 1.02 1.75-.55 6.9 0 8.12.55 1.22 2.73.13 3.28-.79.55-.91-.15-3.18 0-4.71.16-1.53-.31-3.58.94-4.45 1.25-.87 4.34-.96 4.92-2.1.6-1.13-.62-4.4-1.4-4.7-.78-.31-1.13 2.57-3.29 2.87-2.15.3-7.58.61-9.61-1.05-2.04-1.65-2.2-4.7-2.58-8.9-.4-4.19.86-13.05.23-16.23s-2.66-2.97-3.99-2.88c-1.32.09-3.16.3-3.75 4.19z"/></clipPath><linearGradient id="i" x1="47.8" x2="53.97" y1="28.23" y2="28.23" gradientTransform="scale(6.0362)" gradientUnits="userSpaceOnUse"><stop stop-color="#7e5f00" offset=".01"/><stop stop-color="#aa8d33" offset=".16"/><stop stop-color="#d6bb69" offset=".32"/><stop stop-color="#fce294" offset=".48"/><stop stop-color="#e9c967" offset=".63"/><stop stop-color="#d6b039" offset=".79"/><stop stop-color="#c4960c" offset=".95"/></linearGradient></svg>