<svg width="87.74" height="43.21" version="1.2" viewBox="562.45 388.45 87.74 43.21" xmlns="http://www.w3.org/2000/svg"><g clip-path="url(#a)" transform="translate(-10.5 25.5)"><g clip-path="url(#b)" clip-rule="evenodd"><path d="M640.25 374.39v15.45h17.95v-15.45z" fill="url(#c)"/></g></g><g clip-path="url(#d)" transform="translate(-10.5 25.5)"><g clip-path="url(#e)" clip-rule="evenodd"><path d="M576.18 372.76v16.66h20.44v-16.66z" fill="url(#f)"/></g></g><g clip-path="url(#g)" transform="translate(-10.5 25.5)"><g clip-path="url(#h)" clip-rule="evenodd"><path d="M572.95 362.95v43.22h87.74v-43.22z" fill="url(#i)"/></g></g><clipPath id="a"><path d="M640 374h18v16h-18z"/></clipPath><clipPath id="b"><path d="M651.33 375.13c-1.25.23-3.7.06-5.4 1.02-1.7.96-3.89 3.18-4.78 4.75-.9 1.56-.8 3.36-.61 4.64.18 1.29.2 2.45 1.74 3.07 1.53.62 5.28 1.23 7.48.65 2.21-.57 4.46-2.65 5.75-4.09s1.67-3.27 2-4.56c.34-1.28.68-2.18 0-3.16-.68-.97-3.05-2.32-4.09-2.7-1.04-.36-.84.15-2.09.38z"/></clipPath><radialGradient id="c" cx="649.16" cy="382.06" r="11.48" gradientUnits="userSpaceOnUse"><stop stop-color="#fde498" offset=".01"/><stop stop-color="#edc380" offset=".16"/><stop stop-color="#dca268" offset=".32"/><stop stop-color="#cb8050" offset=".48"/><stop stop-color="#bb5f38" offset=".63"/><stop stop-color="#aa3d20" offset=".79"/><stop stop-color="#991c08" offset=".95"/></radialGradient><clipPath id="d"><path d="M576 372h21v18h-21z"/></clipPath><clipPath id="e"><path d="M592.92 378.29c-1.13-1-2.74-2.45-4.53-3.35-1.78-.9-4.35-2.18-6.18-2.04s-3.86 1.55-4.79 2.88a6.56 6.56 0 00-.78 5.12 7.44 7.44 0 003.57 4.55c2.26 1.41 7.41 3.96 10.01 3.9 2.6-.06 4.75-2.86 5.58-4.27.82-1.41-.15-3.06-.61-4.18-.47-1.14-1.14-1.62-2.27-2.61z"/></clipPath><radialGradient id="f" cx="586.28" cy="381.13" r="12.83" gradientUnits="userSpaceOnUse"><stop stop-color="#f3d08a" offset=".1"/><stop stop-color="#e3af72" offset=".26"/><stop stop-color="#d28e5a" offset=".41"/><stop stop-color="#c16c42" offset=".57"/><stop stop-color="#b14b29" offset=".73"/><stop stop-color="#a02911" offset=".88"/></radialGradient><clipPath id="g"><path d="M574 363h87v43h-87z"/></clipPath><clipPath id="h"><path d="M575.39 376.74c-2.45-3.83-1.09-6.56 1.05-8.77 2.13-2.2 8.52-4.88 11.76-4.44 3.23.44 5.62 5.6 7.64 7.08s2.68 2.72 4.48 1.83c1.8-.9 5.1-5.64 9.24-6.73 4.14-1.08 11.21-.92 15.57.21 4.35 1.13 7.96 6.4 10.56 6.56 2.62.16 3.19-4.1 5.1-5.62 1.92-1.51 4.44-3.04 6.4-3.47 1.95-.44 3.38-.18 5.36.87a27.17 27.17 0 016.48 5.41c1.34 1.66 1.65 2.85 1.52 4.53-.12 1.7-1.73 4.95-2.29 5.6-.55.65-.67-1.4-1.01-1.69-.35-.29-.95.26-1.06-.02-.12-.28.46-1.27.36-1.65-.1-.39-1.26.3-1.57.09-.3-.2.14-1.27-.26-1.3-.49-.42-1.35.9-1.48.37-.13-.55 1.47-2.7.7-3.63-.77-.93-2.9-1.85-4.26-1.97-1.35-.13-1.43-.56-3.84 1.23-2.4 1.8-6.79 6.83-9.57 8.23-2.78 1.4-5.52-1.17-7.12.19-1.6 1.34-1.7 5.64-2.5 7.91s-2.6 2.3-2.28 5.68c.32 3.38.33 2.15.58 4.02.26 1.87-.4 5.05-1.31 6.48-.91 1.43-3.13 2.3-4.15 2.1-1.03-.2-1.4-1.42-2.03-3.28-.96 1.96-1.81 3.02-2.76 3.31-.94.3-2.22-.38-2.91-1.53-.7-1.15-1.16-3.62-1.25-5.39-.09-1.76 1.16-3.36.72-5.2-.44-1.82-2.72-4-3.37-5.78-.65-1.8-1-3.84-1.4-5.3-.12-3.33.24-3.66-.7-3.95-.95-.3-3.28 2.37-4.95 2.18-1.68-.2-3.22-1.38-4.23-2.03-1-.65-1.6-2.08-1.83-1.86-1.55-.4-7.28-6.74-9.44-7.18-1.95-.9-3.62 1.68-4.09 2.33-.46.65 1.55.99 1.3 1.58-.24.59-.54 1.22-.95 1.4-.4.17-1.06-.38-1.48-.38-.42 0 .4 1.52.09 1.77-.32.25-1.83-.71-2-.28-.18.44.68 1.12.52 1.67-1.2 0 .4.71-1.48 1.68-.35-.44-1.4-.03-1.74-.47z"/></clipPath><linearGradient id="i" x1="61.6" x2="71.04" y1="43.65" y2="43.65" gradientTransform="scale(9.3005)" gradientUnits="userSpaceOnUse"><stop stop-color="#91550a" offset=".05"/><stop stop-color="#866943" offset=".21"/><stop stop-color="#aca399" offset=".36"/><stop stop-color="#d4d4d4" offset=".55"/><stop stop-color="#b6a999" offset=".81"/><stop stop-color="#9a611b" offset=".96"/></linearGradient></svg>