<svg width="95.99" height="44.47" version="1.2" viewBox="569.73 133.28 95.99 44.47" xmlns="http://www.w3.org/2000/svg"><g clip-path="url(#a)" transform="translate(-16.07 -19.15)"><g clip-path="url(#b)" clip-rule="evenodd"><path d="M585.8 157.88v39.02h58.14v-39.02z" fill="url(#c)"/></g></g><g clip-path="url(#d)" transform="translate(-16.07 -19.15)"><g clip-path="url(#e)" clip-rule="evenodd"><path d="M629.65 189.65v6.57h13.74v-6.57z" fill="url(#f)"/></g></g><g clip-path="url(#g)" transform="translate(-16.07 -19.15)"><g clip-path="url(#h)" clip-rule="evenodd"><path d="M598.31 152.43v34.62h83.48v-34.62z" fill="url(#i)"/></g></g><clipPath id="a"><path d="M586 158h58v39h-58z"/></clipPath><clipPath id="b"><path d="M603.27 161.74c-.46-1.71-1.47-3.17-3.74-3.43-2.28-.26-7.72-.43-9.9 1.87-2.19 2.3-3.82 7.35-3.2 11.95.63 4.61 3.6 12 6.93 15.7 3.34 3.7 8.9 5.37 13.1 6.55 4.2 1.18 8.84 1.2 12.1.52 3.27-.68 6.07-3.05 7.49-4.57 1.4-1.53.71-4.75.99-4.58s-.26 3.9.66 5.61a11.77 11.77 0 004.84 4.68c1.9.85 4.78.83 6.6.42 1.81-.42 3.78-1.3 4.29-2.91.52-1.62 0-3.9-1.21-6.76s-4.15-8.04-6.05-10.4c-1.9-2.35-3.36-3.9-5.4-3.74-2.03.16-3.6 3.73-6.82 4.68-3.2.96-9.31 1.32-12.43 1.04s-4.73-1.07-6.27-2.7c-1.54-1.63-2.6-4.77-2.97-7.07-.37-2.3 1.45-5.15.99-6.86z"/></clipPath><radialGradient id="c" cx="586.29" cy="196.74" r="69.1" gradientUnits="userSpaceOnUse"><stop stop-color="#b17c20" offset=".06"/><stop stop-color="#a47931" offset=".22"/><stop stop-color="#8d744f" offset=".5"/><stop stop-color="#7e7163" offset=".68"/><stop stop-color="#a1876b" offset=".88"/></radialGradient><clipPath id="d"><path d="M629 189h15v8h-15z"/></clipPath><clipPath id="e"><path d="M643.21 191.99c-.18-.82-1.69-1.82-3.41-2.08-1.73-.26-5.28.22-6.93.52-1.66.3-2.74.59-2.98 1.25-.23.65.54 1.95 1.55 2.7a9.5 9.5 0 004.5 1.77c1.58.07 3.82-.75 4.96-1.36s2.5-1.99 2.31-2.8z"/></clipPath><radialGradient id="f" cx="636.54" cy="192.99" r="7.4" gradientUnits="userSpaceOnUse"><stop stop-color="#edcfac" offset=".09"/><stop stop-color="#ebc18f" offset=".46"/><stop stop-color="#e8b271" offset=".83"/></radialGradient><clipPath id="g"><path d="M598 152h84v35h-84z"/></clipPath><clipPath id="h"><path d="M602.05 159.84c.68-1.59 3.3-5.4 4.84-6.09 1.54-.69 3.21 2.14 4.4 1.95 1.2-.19 1.49-2.93 2.75-3.1s3.58 1.94 4.85 2.07c1.26.13 1.68-1.4 2.75-1.26 1.06.13 2.29 1.74 3.62 2.07 1.34.32 3.1-.56 4.4-.12 1.3.44 2.28 2.47 3.42 2.76 1.13.28 2.36-1.36 3.41-1.04 1.04.33 1.93 2.74 2.86 2.99.93.25 1.67-1.72 2.75-1.5 1.08.23 2.46 2.7 3.74 2.88s2.57-2.15 3.96-1.84c1.4.3 3.03 3.43 4.4 3.68 1.38.25 2.89-2.36 3.86-2.18.97.17 1.1 3.17 1.98 3.21.88.04 2.44-2.9 3.3-2.99.86-.08 1.16 2.07 1.87 2.49.72.41 1.57-2.23 2.42-2.29s1.87 1.94 2.64 1.94 1.25-1.99 1.98-1.9c.73.07 1.62 2.25 2.42 2.38.81.13 1.63-1.66 2.42-1.59.8.08 1.56.08 2.31.48a8 8 0 012.2 1.91c.19.38-.71 1.27-1.1 1.88-.38.6.13 2.25-.32 2.8-.47.55-1.62.6-2.43.52-.8-.09-1.77-.7-2.42-1.04-.64-.32-.9-1.09-1.43-.91s-1.12 1.75-1.76 1.95c-.64.2-1.41-.84-2.09-.77-.68.07-1.27.92-1.98 1.2-.72.28-1.65.58-2.3.49s-1.27-1.25-1.66-1.08-.24 1.78-.66 2.11-1.32-.3-1.87-.1c-.55.19-1.03 1-1.43 1.25-.4.25-.6.48-1 .23-.38-.26-.9-1.85-1.31-1.76-.4.1-.33 1.9-1.1 2.35a6.1 6.1 0 01-3.53.33c-.93-.24-1.5-1.95-2.09-1.76-.58.19-.62 2.8-1.43 2.9-.8.12-2.42-2.3-3.4-2.22-1 .08-1.35 2.55-2.54 2.69-1.19.14-3.3-1.8-4.62-1.86-1.32-.06-2.13 1.53-3.3 1.51-1.17-.01-2.6-1.71-3.74-1.62-1.14.1-1.7 1.73-3.08 2.2-1.38.46-4.1-.16-5.17.57-1.09.73-.43 2.91-1.33 3.8-.9.88-3.42.76-4.07 1.48-.64.74 1.27 2.1.22 2.88-1.04.78-5.52 2.28-6.49 1.84-.97-.45 1.3-4.43.66-4.48-.64-.06-3.5 4.19-4.51 4.13-1-.06-.6-4.15-1.54-4.48-.93-.32-3 2.78-4.07 2.53-1.07-.25-2.13-2.97-2.31-4.02-.19-1.06 1.54-1.69 1.2-2.3-.32-.61-3.07.02-3.18-1.38-.11-1.4 2.5-5.36 2.53-7 .03-1.65-2.06-1.7-2.31-2.88-.26-1.18.07-3.68.77-4.25.7-.57 2.93 1.27 3.41.8.48-.45-1.45-1.85-.77-3.44z"/></clipPath><radialGradient id="i" cx="640.03" cy="169.64" r="44.96" gradientUnits="userSpaceOnUse"><stop stop-color="#9b1e08" offset=".09"/><stop stop-color="#a93719" offset=".25"/><stop stop-color="#b65129" offset=".4"/><stop stop-color="#c46a3a" offset=".56"/><stop stop-color="#d2844b" offset=".71"/><stop stop-color="#e09d5b" offset=".87"/></radialGradient></svg>