<svg width="49.83" height="60.61" version="1.2" viewBox="270.08 481.62 49.83 60.61" xmlns="http://www.w3.org/2000/svg"><g clip-path="url(#a)" transform="translate(-8.1 33.25)"><g clip-path="url(#b)" clip-rule="evenodd"><path d="M278.18 448.37v60.6h49.83v-60.6z" fill="url(#c)"/></g></g><g clip-path="url(#d)" transform="translate(-8.1 33.25)"><g clip-path="url(#e)" clip-rule="evenodd"><path d="M303.07 465.88v30.1h15.87v-30.1z" fill="url(#f)"/></g></g><g clip-path="url(#g)" transform="translate(-8.1 33.25)"><g clip-path="url(#h)" clip-rule="evenodd"><path d="M301.79 466.45v29.25h-16.06v-29.25z" fill="url(#i)"/></g></g><clipPath id="a"><path d="M279 448h47v61h-47z"/></clipPath><clipPath id="b"><path d="M281.1 452.01c-2.91 2.22-1.23 7.13 1.46 9.83 2.68 2.7 11.67 4.37 14.64 6.34 2.98 1.97 2.85 3.38 3.2 5.47.36 2.09-1.27 4.06-1.08 7.05.17 3 1.82 8.22 2.18 10.94.37 2.72.05 2.84 0 5.39s-.87 8.34-.29 9.9c.58 1.58 3.3 2.04 3.79-.47.48-2.5-1.04-10.42-.88-14.58.16-4.16 1.73-7.25 1.82-10.39.1-3.12-1.64-6.12-1.23-8.4.4-2.27 2.28-4.2 3.64-5.23 1.36-1.03 2.4-.15 4.52-.95 2.1-.79 6.21-1.32 8.16-3.8 1.94-2.49 6.99-8.67 3.5-11.1-3.5-2.43-17.25-3.33-24.49-3.49-7.23-.15-16.02 1.27-18.94 3.49z"/></clipPath><linearGradient id="c" x1="36.18" x2="36.18" y1="58.02" y2="65.86" gradientTransform="scale(7.7278)" gradientUnits="userSpaceOnUse"><stop stop-color="#f6edd5" offset=".13"/><stop stop-color="#f0d4b0" offset=".29"/><stop stop-color="#ebbf93" offset=".45"/><stop stop-color="#eac88c" offset=".61"/><stop stop-color="#e9b270" offset=".76"/></linearGradient><clipPath id="d"><path d="M303 466h16v30h-16z"/></clipPath><clipPath id="e"><path d="M317.29 470.36c-1.19-2.2-3.8-3.6-5.6-4.04-1.82-.44-4.1.58-5.26 1.42a6.27 6.27 0 00-2.7 3.97c-.33 1.9.73 5.06.67 7.45s-.83 5-1.02 6.9c-.2 1.88-.3 3.02-.15 4.43.16 1.41.16 3.3 1.1 4.04a3.94 3.94 0 004.51.4c2.04-1.04 6.06-4.08 7.72-6.66 1.67-2.57 2.14-5.81 2.26-8.8.12-2.98-.34-6.92-1.53-9.11z"/></clipPath><radialGradient id="f" cx="303.15" cy="466.21" r="33.19" gradientUnits="userSpaceOnUse"><stop stop-color="#843d0c" offset=".02"/><stop stop-color="#944b1b" offset=".17"/><stop stop-color="#ac6031" offset=".4"/><stop stop-color="#c07245" offset=".61"/><stop stop-color="#d8875b" offset=".84"/></radialGradient><clipPath id="g"><path d="M285 466h17v30h-17z"/></clipPath><clipPath id="h"><path d="M287.07 471.11c1.2-2.2 4.1-3.74 5.97-4.2 1.87-.46 4.1.58 5.25 1.43a6.7 6.7 0 012.7 3.96c.29 1.69-.99 3.82-.95 6.18.03 2.37.92 5.9 1.16 8 .25 2.1.43 3.17.3 4.6-.14 1.44.28 3.48-1.1 4.05-1.38.57-5.17.4-7.2-.64-2.05-1.04-3.37-3.05-5.04-5.63-1.66-2.57-2.07-5.83-2.26-8.8-.18-2.95-.02-6.75 1.17-8.95z"/></clipPath><radialGradient id="i" cx="-301.54" cy="466.8" r="32.67" gradientTransform="scale(-1 1)" gradientUnits="userSpaceOnUse"><stop stop-color="#971604" offset=".04"/><stop stop-color="#a42b15" offset=".2"/><stop stop-color="#b24026" offset=".36"/><stop stop-color="#bf5436" offset=".51"/><stop stop-color="#cc6947" offset=".67"/><stop stop-color="#d97e58" offset=".82"/><stop stop-color="#e69269" offset=".98"/></radialGradient></svg>