<svg width="93.41" height="45.95" version="1.2" viewBox="261.99 38.82 93.41 45.95" xmlns="http://www.w3.org/2000/svg"><g clip-path="url(#a)" transform="translate(4.2 -22.43)"><g clip-path="url(#b)" clip-rule="evenodd"><path d="M257.78 75.02v32.18h87.57V75.02z" fill="url(#c)"/></g></g><g clip-path="url(#d)" transform="translate(4.2 -22.43)"><g clip-path="url(#e)" clip-rule="evenodd"><path d="M336.08 67.64v34.76h15.11V67.64z" fill="url(#f)"/></g></g><g clip-path="url(#g)" transform="translate(4.2 -22.43)"><g clip-path="url(#h)" clip-rule="evenodd"><path d="M265.26 64.35v15.73h82.28V64.34z" fill="url(#i)"/></g></g><g clip-path="url(#j)" transform="translate(4.2 -22.43)"><g clip-path="url(#k)" clip-rule="evenodd"><path d="M272.87 80.71V93.4h77.45V80.71z" fill="url(#l)"/></g></g><g fill="none" stroke="#7d5e00" stroke-miterlimit="800"><path d="M293.24 48.74c.13-.87.25-1.75.49-2.7.24-.96.54-2.04.97-3.02.44-.98 1.03-1.92 1.62-2.86m-10.26 9.9c.12-.87.24-1.75.49-2.7.24-.95.53-2.04.97-3.02.43-.98 1.03-1.92 1.62-2.86m32.16 5.94c.12-.87.24-1.74.48-2.7.25-.95.54-2.04.98-3.02.43-.98 1.02-1.91 1.62-2.86m3.07 10.23a23 23 0 011.46-5.72c.44-.98 1.03-1.92 1.62-2.86M307.1 47.4c.12-.87.24-1.75.48-2.7.25-.95.55-2.04.98-3.02a22.7 22.7 0 011.62-2.86m-6.73 11.55c.12-.87.24-1.75.48-2.7.24-.96.54-2.04.97-3.02a22.7 22.7 0 011.63-2.86m-10.36 8.69c.12-.88.25-1.75.5-2.7.23-.96.53-2.04.96-3.02.43-.98 1.03-1.92 1.62-2.86m33.79 5.5c.12-.87.24-1.75.49-2.7.24-.95.53-2.04.97-3.02.43-.98 1.03-1.92 1.62-2.86m1.54 11.88a21.56 21.56 0 011.45-5.72c.44-.98 1.03-1.92 1.63-2.86m-21.9 7.92a21.76 21.76 0 011.46-5.72c.43-.98 1.03-1.92 1.62-2.86m2.94 7.25a23.67 23.67 0 011.46-5.72 21.8 21.8 0 011.62-2.86m-13.86 11.18c.12-.87.25-1.74.49-2.7.24-.95.54-2.03.97-3.01a21.8 21.8 0 011.62-2.86" stroke-width=".75"/><path d="M343.39 53.25c.11-1.4.23-2.82.46-4.35.24-1.53.53-3.28.95-4.86s1-3.1 1.57-4.61" stroke-width=".94"/><path d="M311.74 50.37c.12-.87.24-1.75.48-2.7.25-.96.54-2.04.98-3.02.43-.98 1.02-1.92 1.62-2.86M299.59 52c.12-.87.24-1.75.48-2.7.24-.95.54-2.04.97-3.02.44-.98 1.03-1.92 1.63-2.86M328.24 52c.12-.88.24-1.75.48-2.7.24-.95.54-2.04.97-3.02.44-.98 1.03-1.92 1.62-2.86m-14.73 7.06c.13-.88.25-1.75.5-2.7.23-.96.53-2.04.96-3.02.43-.98 1.03-1.92 1.62-2.86m-10.96 8.82c.12-.87.24-1.75.48-2.7.24-.95.54-2.04.97-3.02.44-.98 1.03-1.92 1.63-2.86m-23.64 10.75c.12-.87.24-1.75.49-2.7a20 20 0 01.97-3.02c.43-.98 1.03-1.92 1.62-2.86m.11 5.63a23.78 23.78 0 011.46-5.72c.43-.98 1.03-1.92 1.62-2.86" stroke-width=".75"/></g><path d="M288.02 60.72c-.24-1.1.54-2.19 2-2.8a7.02 7.02 0 014.9-.09 4.01 4.01 0 012.66-1.19c1.13-.1 2.29.13 3.1.64.46-.58 1.37-.97 2.39-1.03a3.91 3.91 0 012.65.73 4.65 4.65 0 013.39-.67c1.24.21 2.17.85 2.4 1.64a3.7 3.7 0 012.32 1.21c.46.6.48 1.3.07 1.9 1 .82 1.24 1.9.62 2.86s-2 1.64-3.63 1.78c-.01.9-.8 1.72-2.05 2.15a6.1 6.1 0 01-4-.07c-.5 1.08-1.96 1.87-3.72 2.03-1.77.17-3.52-.32-4.52-1.26-1.21.46-2.67.6-4.04.37a5.59 5.59 0 01-3.24-1.56c-1.24.1-2.44-.31-3-1.01-.57-.7-.38-1.54.48-2.11-1.11-.41-1.67-1.23-1.4-2.01.27-.8 1.32-1.39 2.6-1.47z" fill="#7d4502" fill-rule="evenodd" stroke="#7d4502" stroke-miterlimit="800" stroke-opacity=".36"/><path d="M286.8 64.24c.52.19 1.12.28 1.73.25m.79 2.87c.26-.02.51-.06.75-.12m6.53 1.31a2.81 2.81 0 01-.45-.54m8.7-.23c.1-.2.15-.4.18-.6m5.86-1.48c.01-.95-.85-1.83-2.22-2.24m5.23-2.4a2.8 2.8 0 01-.99.85m-1.4-3.96c.04.13.06.26.06.4m-5.85-1.37c-.2.15-.38.32-.5.5m-4.54-.2c-.1.13-.19.28-.24.43m-5.52.12c.32.12.61.26.88.43m-7.78 2.46c.03.15.08.3.15.44" fill="none" stroke="#7d4502" stroke-miterlimit="800" stroke-opacity=".36"/><clipPath id="a"><path d="M263 76h82v31h-82z"/></clipPath><clipPath id="b"><path d="M268.56 78.09c-10.79 3.06-.12 14.73-1.42 17.49-1.3 2.76.2 7.04 1.83 8.94 1.64 1.89.54 2.57 8 2.43 7.48-.15 27.3-3.26 36.8-3.31 9.51-.05 15.28 3.56 20.27 3 4.99-.55 8.04-2.4 9.68-6.34 1.63-3.94-1.44-9.31.12-17.29-2.55-3.35.56-5-11.98-5.83-12.55-.82-52.51-2.16-63.3.9z"/></clipPath><linearGradient id="c" x1="62.03" x2="62.03" y1="19.32" y2="13.52" gradientTransform="scale(5.5491)" gradientUnits="userSpaceOnUse"><stop stop-color="#f9f4e5" offset=".34"/><stop stop-color="#f4e8c9" offset=".49"/><stop stop-color="#eedcac" offset=".65"/><stop stop-color="#f8e19a" offset=".9"/></linearGradient><clipPath id="d"><path d="M337 69h14v34h-14z"/></clipPath><clipPath id="e"><path d="M339.67 91.91c.29 1.13-.06 10.49 1.71 10.34 1.77-.15 7.99-5.77 8.9-11.23.9-5.47-1.26-19.78-3.43-21.58-2.16-1.8-8.38 6.44-9.57 10.8-1.2 4.33 2.05 13.1 2.39 15.27.34 2.17-.29-4.72 0-3.6z"/></clipPath><linearGradient id="f" x1="62.97" x2="58.97" y1="15.27" y2="10.49" gradientTransform="scale(5.83)" gradientUnits="userSpaceOnUse"><stop stop-color="#f7efda" offset=".32"/><stop stop-color="#eedcab" offset=".48"/><stop stop-color="#eacb90" offset=".64"/><stop stop-color="#e9bb7a" offset=".79"/><stop stop-color="#e8ac65" offset=".95"/></linearGradient><clipPath id="g"><path d="M265 64h82v16h-82z"/></clipPath><clipPath id="h"><path d="M265.77 78.76c.51-1.32 8.72-7.59 11.97-9.9 3.26-2.3 3.14-3.4 7.53-3.96 4.4-.55 13.4.55 18.82.66 5.41.11 8.95.11 13.68 0 4.73-.1 10.55-1.04 14.72-.66 4.16.39 7.86 2.04 10.26 2.97s4.79.93 4.1 2.64c-.68 1.7-1.93 6.38-8.2 7.59-6.28 1.2-29.43-.33-29.43-.33l-18.13-.33c-5.76-.17-12.32-.83-16.43-.66-4.1.16-9.4 3.3-8.89 1.98z"/></clipPath><linearGradient id="i" x1="52.48" x2="54.77" y1="16.54" y2="10.26" gradientTransform="scale(6.4227)" gradientUnits="userSpaceOnUse"><stop stop-color="#a63316" offset=".16"/><stop stop-color="#bc5c31" offset=".32"/><stop stop-color="#d3854b" offset=".47"/><stop stop-color="#e7ab64" offset=".66"/></linearGradient><clipPath id="j"><path d="M272 80h78v14h-78z"/></clipPath><clipPath id="k"><path d="M272.87 86.96c.57 4.14 3.2 5.94 4.6 6.18 1.42.25 2.45-3.68 3.9-4.7 1.46-1.03 2.04-.03 3.63.7 1.58.72 4.25 3.14 5.89 3.64a4 4 0 003.9-.63c1.2-.85 2.33-4.26 3.27-4.44.94-.18.78 2.8 2.38 3.36 1.6.56 5.66.61 7.23 0 1.58-.62 1.19-3.82 2.24-3.72 1.04.1 2.14 3.74 4.05 4.35 1.91.6 5.82.06 7.43-.73 1.6-.78.81-3.93 2.23-3.98s4.17 3 6.3 3.7c2.15.72 4.77 1.04 6.53.56 1.76-.49 2.72-3.1 4.04-3.45 1.33-.33 3.86 2.43 5.11 1.53 1.25-.9 4.72-2.9 3.24-4.08-1.48-1.17-7.81-2.54-12.12-2.97-4.3-.44-8.16.36-13.72.36-5.56 0-14.03-.06-19.64-.36-5.62-.3-9.77-1.57-14.03-1.45-4.26.12-10.05 2.08-10.05 2.08z"/></clipPath><linearGradient id="l" x1="77.7" x2="77.7" y1="22.98" y2="26.59" gradientTransform="scale(3.5119)" gradientUnits="userSpaceOnUse"><stop stop-color="#a32d12" offset=".12"/><stop stop-color="#b9562c" offset=".28"/><stop stop-color="#cf7e47" offset=".43"/><stop stop-color="#e4a661" offset=".59"/></linearGradient></svg>