<svg width="56.84" height="53.79" version="1.2" viewBox="265.64 261.82 56.84 53.79" xmlns="http://www.w3.org/2000/svg"><g transform="translate(-2.1 27.34)" clip-path="url(#a)"><g clip-path="url(#b)" clip-rule="evenodd"><path d="M267.74 234.48v53.8h56.84v-53.8z" fill="url(#c)"/></g></g><clipPath id="a"><path d="M268 234h56v55h-56z"/></clipPath><clipPath id="b"><path d="M287.16 234.72c-.91-.24-2.4.34-2.63 2.43-.22 2.09-.69 6.54 1.32 10.11 2 3.58 8.43 8.57 10.73 11.33 2.3 2.77 2.52 3.68 3.07 5.27.54 1.58 1.28 2.9.22 4.25-1.06 1.34-4.39 2.83-6.58 3.84-2.19 1.01-2.77 1.32-6.57 2.23-3.8.9-13.43 1.45-16.2 3.24-2.78 1.78-1.9 6.98-.45 7.48 1.46.5 5.66-4.18 9.2-4.45 3.55-.27 8.37 1.55 12.05 2.83 3.7 1.29 5.92 4.73 10.08 4.86 4.16.13 11.28-1.52 14.9-4.05 3.61-2.53 5.73-6.64 6.79-11.13 1.05-4.48 1.5-11.13-.44-15.78-1.94-4.66-7.16-11-11.17-12.14-4.02-1.15-9.9 4.79-12.93 5.26-3.03.47-3.83-.47-5.26-2.43-1.42-1.96-2.44-7.15-3.28-9.3-.84-2.17-1.94-3.62-2.85-3.85z"/></clipPath><radialGradient id="c" cx="268.7" cy="234.67" r="76.92" gradientUnits="userSpaceOnUse"><stop stop-color="#b88334" offset=".11"/><stop stop-color="#f3d689" offset=".27"/><stop stop-color="#d5945e" offset=".43"/><stop stop-color="#a43117" offset=".58"/><stop stop-color="#a03600" offset=".74"/><stop stop-color="#b36d00" offset=".9"/></radialGradient></svg>