<svg width="45.8" height="53.02" version="1.2" viewBox="595.84 481.64 45.8 53.02" xmlns="http://www.w3.org/2000/svg"><g clip-path="url(#a)" transform="translate(-1.5 57)"><g clip-path="url(#b)" clip-rule="evenodd"><path d="M597.34 424.64v53.02h45.8v-53.02z" fill="url(#c)"/></g></g><path d="M597.42 496.98c2-1.23 7.72-4.1 11.09-4.77 3.38-.67 6.1.78 9.15.74 3.05-.04 6.38-1.19 9.15-.99 2.79.21 5.3 1.1 7.53 2.22 2.24 1.13 5.26 2.6 6.28 3.3 1.02.7.75.98-.15.9-.9-.09-3.62-1.17-5.28-1.4-1.65-.23-3.28-.66-4.65 0-1.37.66-2.74 2.29-3.57 3.95-.83 1.65-.87 4.19-1.4 6-.52 1.8-1.18 2.72-1.78 4.84a63.76 63.76 0 00-1.78 7.9c-.27 2.26-.88 1.83-1.17 3.77-.28 1.95-.37 7.43-.54 7.9-.17.46-1.42.89-1.63-.41-.2-1.3.5-6.2.4-7.4-.13-1.21-1.06-1.84-1.72-3.95-.66-2.1-1.52-6.01-2.25-8.7-.72-2.7-1.31-5.28-2.09-7.49-.78-2.2-.5-3.55-2.56-5.75a7.5 7.5 0 00-5.74-2.06c-2.06.15-5.54 2.52-6.6 2.96-1.04.44-1.35 1.18-1.62 1.07-.27-.11-1.07-1.4.93-2.63z" fill="#fff0ca" fill-rule="evenodd"/><clipPath id="a"><path d="M597 425h46v53h-46z"/></clipPath><clipPath id="b"><path d="M601.21 436.99c2.3-2.11 6.44-7.68 10.58-9.5s10.12-2.85 14.26-1.46c4.13 1.37 7.96 7.67 10.57 9.74 2.6 2.07 4.1 1.42 5.06 2.68.96 1.26 1.46 4.3.69 4.87-.77.57-4.1-1.78-5.29-1.46s-1.03 1.38-1.84 3.41c-.8 2.03-2.04 6.22-2.99 8.77s-2.36 3.74-2.67 6.58c-.3 2.85.8 8.01.83 10.48.03 2.47-.01 3.28-.67 4.32-.66 1.05-2.28 1.67-3.28 1.95-1 .29-3.3-.51-4.1-1.4-.8-.88-.57-2.4-.69-3.9-.1-1.5.14-4.24 0-5.1-.13-.85-.68-.73-.8-.04-.1.7.16 2.73-.1 4.27s-.4 4.02-1.4 5.02c-.98 1-3.12 1.41-4.5 1-1.38-.4-3.41-1.24-3.77-3.44-.36-2.2 1.5-7.35 1.61-9.74.1-2.4-.41-3.2-.99-4.67-.57-1.46-1.64-2.53-2.46-4.1-.83-1.58-1.73-2.91-2.5-5.35-.77-2.43-.71-8.18-2.1-9.28-1.23-.16-5.1 2.76-6.2 2.68-1.12-.08-.93-2.07-.47-3.16.46-1.1.92-1.06 3.22-3.17z"/></clipPath><radialGradient id="c" cx="620.18" cy="451.41" r="34.44" gradientUnits="userSpaceOnUse"><stop stop-color="#b9490d" offset=".12"/><stop stop-color="#a93107" offset=".27"/><stop stop-color="#991902" offset=".43"/><stop stop-color="#a35045" offset=".59"/><stop stop-color="#bcb4b3" offset=".74"/><stop stop-color="#a5594f" offset=".9"/></radialGradient></svg>